<?xml version="1.0" encoding="UTF-8"?>
<svg width="32px" height="32px" viewBox="0 0 32 32" version="1.1" xmlns="http://www.w3.org/2000/svg" xmlns:xlink="http://www.w3.org/1999/xlink">
    <title>编组</title>
    <g id="页面-1" stroke="none" stroke-width="1" fill="none" fill-rule="evenodd">
        <g id="画板备份-32" transform="translate(-160.000000, -616.000000)">
            <g id="编组" transform="translate(160.000000, 616.000000)">
                <rect id="矩形" x="9.09494702e-13" y="0" width="32" height="32"></rect>
                <path d="M22.9666667,4 C23.7030463,4 24.3,4.59695367 24.3,5.33333333 L24.3,14.445 L22.7,11.645 L22.7,5.6 L5.9,5.6 L5.9,26.4 L9.466,26.399 L8.552,28 L5.63333333,28 C4.89695367,28 4.3,27.4030463 4.3,26.6666667 L4.3,5.33333333 C4.3,4.59695367 4.89695367,4 5.63333333,4 L22.9666667,4 Z" id="形状结合" fill="#1A1B1C"></path>
                <rect id="矩形" fill="#1A1B1C" x="8.3" y="8.8" width="10.6666667" height="1.6" rx="0.8"></rect>
                <rect id="矩形" fill="#1A1B1C" x="8.3" y="13.8666667" width="7.6" height="1.6" rx="0.8"></rect>
                <path d="M19.636812,12.1964057 C20.2304616,11.8570877 20.9751621,12.0243002 21.3710943,12.5617903 L21.4560446,12.6923375 L29.826486,27.3367379 C29.9416375,27.5381998 30.0022371,27.7662263 30.0022371,27.9982754 C30.0022371,28.6820565 29.4876225,29.2456618 28.8245108,29.3227381 L28.6690167,29.3317216 L11.9309395,29.3331388 C11.6988979,29.3331388 11.4708684,29.2726211 11.2693916,29.1575108 C10.6756788,28.8183032 10.4416905,28.0918128 10.7037727,27.4778333 L10.7731213,27.3383705 L19.1407571,12.6925529 C19.2588519,12.4858524 19.4301334,12.314539 19.636812,12.1964057 Z M20.2986669,13.8906667 L12.3893336,27.732 L28.2093336,27.7306667 L20.2986669,13.8906667 Z" id="形状结合" fill="#1A1B1C" fill-rule="nonzero"></path>
                <polygon id="Path" fill="#1A1B1C" fill-rule="nonzero" points="19.5 18.5333333 21.1 18.5333333 20.9754864 23.4731373 19.6245136 23.4731373"></polygon>
                <path d="M20.2972509,26.0437453 C19.85189,26.0437453 19.5,25.6875616 19.5,25.2409185 C19.5,24.7942754 19.85189,24.4437453 20.2972509,24.4437453 C20.74811,24.4437453 21.1,24.7942754 21.1,25.2409185 C21.1,25.6875616 20.74811,26.0437453 20.2972509,26.0437453 Z" id="Path" fill="#1A1B1C" fill-rule="nonzero"></path>
            </g>
        </g>
    </g>
</svg>