<?xml version="1.0" encoding="UTF-8"?>
<svg width="21px" height="21px" viewBox="0 0 21 21" version="1.1" xmlns="http://www.w3.org/2000/svg" xmlns:xlink="http://www.w3.org/1999/xlink">
    <title>画板</title>
    <g id="画板" stroke="none" stroke-width="1" fill="none" fill-rule="evenodd">
        <g id="icons_outlined_mylocation(2)" fill-rule="nonzero">
            <rect id="矩形" x="0" y="0" width="21" height="21"></rect>
            <path d="M11.025,1.75 L11.0249926,3.78265185 C14.32741,4.03717184 16.9628281,6.67258993 17.2173481,9.97500735 L19.25,9.975 L19.25,11.025 L17.2172808,11.0258662 C16.9623634,14.3278748 14.3271189,16.9628506 11.0249926,17.2173481 L11.025,19.25 L9.975,19.25 L9.97413384,17.2172808 C6.67241639,16.9623859 4.03761409,14.3275836 3.78271923,11.0258662 L1.75,11.025 L1.75,9.975 L3.78265185,9.97500735 C4.0371494,6.6728811 6.67212523,4.03763657 9.97413384,3.78271923 L9.975,1.75 L11.025,1.75 Z M10.5,4.8125 L10.2784292,4.81673666 C10.2397717,4.81821751 10.201213,4.82008419 10.162757,4.82233297 C10.1142199,4.82517685 10.0665069,4.82857392 10.0189602,4.8325559 L10.162757,4.82233297 C7.25175156,4.99255835 4.92883279,7.35216911 4.81673666,10.2784292 C4.81392706,10.3516122 4.8125,10.4256394 4.8125,10.5 L4.81643914,10.7136621 C4.81796474,10.7549698 4.81993088,10.796165 4.82233297,10.837243 C4.82517685,10.8857801 4.82857392,10.9334931 4.8325559,10.9810398 L4.82233297,10.837243 C4.99264353,13.7497051 7.35453115,16.0734919 10.2828226,16.1834299 C10.354282,16.186124 10.4269803,16.1875 10.5,16.1875 L10.5105032,16.1875 L10.5105032,16.1875 L10.7171774,16.1834299 C10.7570142,16.1819344 10.796746,16.180029 10.836369,16.1777181 C10.8858367,16.17483 10.9347935,16.1713384 10.983575,16.1672312 L10.836369,16.1777181 C13.8209111,16.0036488 16.1875,13.5281976 16.1875,10.5 C16.1875,10.3870781 16.1842091,10.2749249 16.1777181,10.163631 C16.17483,10.1141633 16.1713384,10.0652065 16.1672312,10.016425 L16.1777181,10.163631 C16.007914,7.25221654 13.6481237,4.92884401 10.7215708,4.81673666 C10.6482948,4.81392526 10.5743138,4.8125 10.5,4.8125 Z" id="形状结合" fill="#000000"></path>
            <circle id="椭圆形" fill="#000000" cx="10.5" cy="10.5" r="2.40625"></circle>
        </g>
    </g>
</svg>