<?xml version="1.0" encoding="UTF-8"?>
<svg width="24px" height="24px" viewBox="0 0 24 24" version="1.1" xmlns="http://www.w3.org/2000/svg" xmlns:xlink="http://www.w3.org/1999/xlink">
    <!-- Generator: Sketch 53.2 (72643) - https://sketchapp.com -->
    <title>画板</title>
    <desc>Created with Sketch.</desc>
    <g id="iOS确定" stroke="none" stroke-width="1" fill="none" fill-rule="evenodd">
        <g id="画板" fill="#000000" fill-rule="nonzero">
            <g id="icons_filled_transfer-text" transform="translate(3.000000, 3.000000)">
                <path d="M1,0 L17,0 C17.5522847,0 18,0.44771525 18,1 L18,17 C18,17.5522847 17.5522847,18 17,18 L1,18 C0.44771525,18 0,17.5522847 0,17 L0,1 C0,0.44771525 0.44771525,0 1,0 Z M4.198,5.848 L4.198,6.992 L5.87,6.992 C6.332,8.587 7.157,9.984 8.345,11.194 C7.201,12.162 5.749,12.866 4,13.317 L4.616,14.329 C6.409,13.823 7.927,13.02 9.159,11.931 C10.325,12.899 11.788,13.713 13.548,14.373 L14.186,13.394 C12.514,12.778 11.106,12.03 9.973,11.128 C10.985,10.017 11.755,8.642 12.283,6.992 L13.944,6.992 L13.944,5.848 L9.786,5.848 C9.456,5.133 9.093,4.517 8.697,4 L7.542,4.418 C7.938,4.869 8.279,5.342 8.554,5.848 L4.198,5.848 Z M6.97,6.992 L11.095,6.992 C10.666,8.323 10.017,9.467 9.159,10.413 C8.147,9.423 7.421,8.29 6.97,6.992 Z" id="Combined-Shape"></path>
            </g>
        </g>
    </g>
</svg>