<?xml version="1.0" encoding="UTF-8"?>
<svg width="24px" height="24px" viewBox="0 0 24 24" version="1.1" xmlns="http://www.w3.org/2000/svg" xmlns:xlink="http://www.w3.org/1999/xlink">
    <title>Icons_filld_othersticker</title>
    <g id="Icons_filld_othersticker" stroke="none" stroke-width="1" fill="none" fill-rule="evenodd" fill-opacity="0.9">
        <path d="M16.7710843,7.46895673 C20.7635042,7.46895673 24,10.7218416 24,14.7344784 C24,18.7471152 20.7635042,22 16.7710843,22 C12.7786645,22 9.54216867,18.7471152 9.54216867,14.7344784 C9.54216867,10.7218416 12.7786645,7.46895673 16.7710843,7.46895673 Z M20.7307796,15.4610305 L12.811389,15.4610305 C12.9940019,17.4977379 14.6970931,19.0937913 16.7710843,19.0937913 C18.8450756,19.0937913 20.5481668,17.4977379 20.7307796,15.4610305 Z M7.23077668,2 C10.3497522,2 13.0074973,3.98425105 14.0219087,6.76496956 C12.2878158,7.36397636 10.8088532,8.50828172 9.78907443,9.99266103 L3.270062,9.9920738 C3.45272182,12.0287812 5.15625147,13.6248346 7.23077668,13.6248346 C7.64095035,13.6248346 8.03662072,13.5624402 8.40889992,13.446582 C8.33665113,13.8871666 8.3,14.3393032 8.3,14.8 C8.3,15.3563757 8.3534556,15.9002663 8.45551106,16.4268158 C8.05831769,16.4954195 7.64868748,16.5310433 7.23077668,16.5310433 C3.23732899,16.5310433 2.26130226e-12,13.2781584 2.26130226e-12,9.26552164 C2.26130226e-12,5.25288484 3.23732899,2 7.23077668,2 Z M20.0097693,10.4914135 L17.7226214,12.4796008 L20.035054,14.1573195 L20.6055257,13.3746724 L19.2734552,12.4075344 L20.6421153,11.2188445 L20.0097693,10.4914135 Z M13.5310794,10.4904828 L12.8987334,11.2179137 L14.267182,12.4064198 L12.935323,13.3737417 L13.5057946,14.1563888 L15.8182272,12.4786701 L13.5310794,10.4904828 Z M4.70000484,5.9960369 C4.10098769,5.9960369 3.61538834,6.48396963 3.61538834,7.08586515 C3.61538834,7.68776067 4.10098769,8.17569339 4.70000484,8.17569339 C5.299022,8.17569339 5.78462135,7.68776067 5.78462135,7.08586515 C5.78462135,6.48396963 5.299022,5.9960369 4.70000484,5.9960369 Z M9.76154852,5.9960369 C9.16253137,5.9960369 8.67693202,6.48396963 8.67693202,7.08586515 C8.67693202,7.68776067 9.16253137,8.17569339 9.76154852,8.17569339 C10.3605657,8.17569339 10.846165,7.68776067 10.846165,7.08586515 C10.846165,6.48396963 10.3605657,5.9960369 9.76154852,5.9960369 Z" id="形状结合" fill="#000000" transform="translate(12.000000, 12.000000) scale(-1, 1) translate(-12.000000, -12.000000) "></path>
    </g>
</svg>