<?xml version="1.0" encoding="UTF-8"?>
<svg width="24px" height="24px" viewBox="0 0 24 24" version="1.1" xmlns="http://www.w3.org/2000/svg" xmlns:xlink="http://www.w3.org/1999/xlink">
    <title>icons_filled_allselect</title>
    <g id="icons_filled_allselect" stroke="none" stroke-width="1" fill="none" fill-rule="evenodd" fill-opacity="0.9">
        <path d="M21.8118624,13.3742221 L23.4583685,15.0207282 L16.8791752,21.5999215 L12.76291,17.4836563 L14.4077083,15.838858 L16.8774674,18.3086171 L21.8118624,13.3742221 Z M17.2528353,2.5 C17.7923956,2.5 18.2366063,2.90824005 18.2934364,3.43268903 L18.2995785,3.54674324 L18.299,14.482 L16.951565,15.8302438 L14.4770297,13.3554561 L10.234389,17.5980968 L13.744,21.108 L3.04674324,21.1087687 C2.50718293,21.1087687 2.0629722,20.7005287 2.00614215,20.1760797 L2,20.0620255 L2,3.54674324 C2,3.00718293 2.40824005,2.5629722 2.93268903,2.50614215 L3.04674324,2.5 L17.2528353,2.5 Z M10.1497892,12.2696036 L5.05617097,12.2696036 L5.05617097,13.8397184 L10.1497892,13.8397184 L10.1497892,12.2696036 Z M15.2434075,9.12937386 L5.05617097,9.12937386 L5.05617097,10.6994887 L15.2434075,10.6994887 L15.2434075,9.12937386 Z M15.2434075,5.98914414 L5.05617097,5.98914414 L5.05617097,7.559259 L15.2434075,7.559259 L15.2434075,5.98914414 Z" id="形状结合" fill="#000000"></path>
    </g>
</svg>