<?xml version="1.0" encoding="UTF-8"?>
<svg width="24px" height="24px" viewBox="0 0 24 24" version="1.1" xmlns="http://www.w3.org/2000/svg" xmlns:xlink="http://www.w3.org/1999/xlink">
    <title>icon_stick_强调</title>
    <g id="icon_stick_强调" stroke="none" stroke-width="1" fill="none" fill-rule="evenodd">
        <rect id="Rectangle-11" stroke-opacity="0.2" stroke="#000000" stroke-width="0.5" fill="#FFFFFF" opacity="0" x="0.25" y="0.25" width="23.5" height="23.5"></rect>
        <path d="M9.24528697,6.3 C13.9094902,6.3 17.6905739,9.5139212 17.6905739,13.4784939 C17.6905739,17.4430666 13.9094902,20.6569879 9.24528697,20.6569879 C8.29182815,20.6569879 7.3752729,20.5226853 6.52037643,20.2751222 L4.00118692,21.4831001 C3.92927671,21.5175818 3.84907187,21.5309948 3.76985524,21.5217865 C3.53820486,21.4948592 3.37224405,21.2852405 3.39917139,21.0535901 L3.65430115,18.8587611 C1.90379737,17.5434918 0.8,15.6205603 0.8,13.4784939 C0.8,9.5139212 4.58108377,6.3 9.24528697,6.3 Z M22.7178573,8.417768 C22.745592,8.46631448 22.769148,8.51713169 22.7882705,8.56967031 C22.9745459,9.08145796 22.7106662,9.64734992 22.1988785,9.83362539 C22.1463399,9.85274788 22.0922702,9.86736767 22.0372539,9.8773267 L19.1069008,10.4077783 C18.8487608,10.4545067 18.6016161,10.2831238 18.5548877,10.0249839 C18.5190359,9.82692906 18.6119007,9.62777981 18.7866646,9.52793672 L21.3724131,8.05069154 C21.8453126,7.78052274 22.4476885,7.94486847 22.7178573,8.417768 Z M20.2858686,3.43698369 C20.337666,3.47362086 20.3862578,3.5145915 20.4311201,3.5594538 C20.8686652,3.99699889 20.8686652,4.70639964 20.4311201,5.14394473 C20.3862578,5.18880703 20.337666,5.22977767 20.2858686,5.26641485 L17.2121794,7.4404877 C16.9980048,7.59197706 16.7015756,7.54116062 16.5500862,7.32698602 C16.4338161,7.16260416 16.4338161,6.94277639 16.5500862,6.77839453 L18.7241591,3.70470532 C19.081484,3.19952186 19.7806852,3.0796588 20.2858686,3.43698369 Z M15.0216295,1.53518781 C15.0765199,1.54513579 15.1304662,1.55972819 15.1828865,1.57880764 C15.6941459,1.76489081 15.9577532,2.33019859 15.77167,2.84145791 C15.7525906,2.89387826 15.729093,2.94458329 15.7014308,2.99302622 L14.2258292,5.57714018 C14.0957433,5.80495026 13.8056112,5.88417133 13.5778011,5.75408538 C13.4029539,5.65424269 13.3100506,5.45501107 13.3459564,5.25689265 L13.8766164,2.32884813 C13.9736398,1.79349824 14.4862797,1.43816442 15.0216295,1.53518781 Z" id="形状结合" fill-opacity="0.99" fill="#000000"></path>
    </g>
</svg>