<?xml version="1.0" encoding="UTF-8"?>
<svg width="32px" height="32px" viewBox="0 0 32 32" version="1.1" xmlns="http://www.w3.org/2000/svg" xmlns:xlink="http://www.w3.org/1999/xlink">
    <title>编组 29</title>
    <g id="地理位置详情页增加打车小程序入口" stroke="none" stroke-width="1" fill="none" fill-rule="evenodd">
        <g id="编组-29">
            <rect id="矩形" x="0" y="0" width="32" height="32"></rect>
            <path d="M17.0814755,2.93933983 L29.1022907,14.9601551 C29.6880772,15.5459415 29.6880772,16.495689 29.1022907,17.0814755 L17.0814755,29.1022907 C16.495689,29.6880772 15.5459415,29.6880772 14.9601551,29.1022907 L2.93933983,17.0814755 C2.35355339,16.495689 2.35355339,15.5459415 2.93933983,14.9601551 L14.9601551,2.93933983 C15.5459415,2.35355339 16.495689,2.35355339 17.0814755,2.93933983 Z M15.7709473,10.1740184 C15.6878199,10.101282 15.5614674,10.1097055 15.488731,10.1928328 L12.4294847,13.6891144 C12.3975836,13.7255727 12.38,13.7723706 12.38,13.8208153 C12.38,13.9312722 12.4695431,14.0208153 12.58,14.0208153 L14.9392464,14.0208153 L14.9392464,21.8208153 C14.9392464,21.9312722 15.0287894,22.0208153 15.1392464,22.0208153 L16.4392464,22.0208153 L16.439,19.342531 L16.4434403,19.2273151 C16.5015554,18.4299028 17.0650682,18.0307966 18.1339787,18.0299965 L16.607,18.020531 L18.9392463,18.0208153 C19.0497033,18.0208153 19.1392464,17.9312722 19.1392464,17.8208153 L19.1392464,16.7208153 C19.1392464,16.6103583 19.0497033,16.5208153 18.9392463,16.5208153 L16.439,16.520531 L16.4392464,14.0208153 L18.6984927,14.0208153 C18.7469373,14.0208153 18.7937353,14.0032316 18.8301936,13.9713306 C18.913321,13.8985942 18.9217445,13.7722417 18.849008,13.6891144 L15.7897617,10.1928328 C15.7839148,10.1861507 15.7776294,10.1798653 15.7709473,10.1740184 Z" id="形状结合" fill="#07C160"></path>
        </g>
    </g>
</svg>