<?xml version="1.0" encoding="UTF-8"?>
<svg width="24px" height="24px" viewBox="0 0 24 24" version="1.1" xmlns="http://www.w3.org/2000/svg" xmlns:xlink="http://www.w3.org/1999/xlink">
    <title>0.图标/视频号/icons_filled_channels_Blacklist</title>
    <g id="0.图标/视频号/icons_filled_channels_Blacklist" stroke="none" stroke-width="1" fill="none" fill-rule="evenodd" fill-opacity="0.9">
        <g id="编组" fill="#000000">
            <path d="M17,12 C19.7614237,12 22,14.2385763 22,17 C22,19.7614237 19.7614237,22 17,22 C14.2385763,22 12,19.7614237 12,17 C12,14.2385763 14.2385763,12 17,12 Z M12,3 C14.209139,3 16,4.79298022 16,7.00020747 L16,8.71018568 C16,9.28526201 15.8473154,9.98636008 15.6018153,10.6514443 C12.6838673,11.2904775 10.5,13.890204 10.5,17 C10.5,18.5089309 11.0141634,19.8977726 11.876848,21.0008828 L3.5,21 C2.94771525,21 2.5,20.5522847 2.5,20 L2.5,19.3154633 C2.5,18.6303744 2.99815091,17.8319079 3.61409761,17.5313327 L9.27445076,14.769143 C10.0953771,14.36854 10.2862591,13.4812624 9.69344522,12.7786389 L9.33191269,12.350138 C8.59631763,11.4782852 8,9.84949648 8,8.70929053 L8,6.99958038 C8,4.79067313 9.79535615,3 12,3 Z M14.0516919,15.1130714 C13.7024941,15.6575589 13.5,16.3051319 13.5,17 C13.5,18.9329966 15.0670034,20.5 17,20.5 C17.6948681,20.5 18.3424411,20.2975059 18.8869286,19.9483081 L14.0516919,15.1130714 Z M17,13.5 C16.3051319,13.5 15.6575589,13.7024941 15.1130714,14.0516919 L19.9483081,18.8869286 C20.2975059,18.3424411 20.5,17.6948681 20.5,17 C20.5,15.0670034 18.9329966,13.5 17,13.5 Z" id="形状结合"></path>
        </g>
    </g>
</svg>