<?xml version="1.0" encoding="UTF-8"?>
<svg width="64px" height="64px" viewBox="0 0 64 64" version="1.1" xmlns="http://www.w3.org/2000/svg" xmlns:xlink="http://www.w3.org/1999/xlink">
    <!-- Generator: Sketch 58 (84663) - https://sketch.com -->
    <title>附件栏面板icon底色点击态</title>
    <desc>Created with Sketch.</desc>
    <g id="附件栏面板icon底色点击态" stroke="none" stroke-width="1" fill="none" fill-rule="evenodd" fill-opacity="0.1">
        <path d="M41.6869333,0 C48.112,0 51.3237333,0 54.7824,1.09333333 C58.5584,2.46773333 61.5322667,5.4416 62.9066667,9.2176 C64,12.6757333 64,15.8885333 64,22.3130667 L64,41.6869333 C64,48.112 64,51.3237333 62.9066667,54.7824 C61.5322667,58.5584 58.5584,61.5322667 54.7824,62.9061333 C51.3237333,64 48.112,64 41.6869333,64 L22.3130667,64 C15.888,64 12.6757333,64 9.2176,62.9061333 C5.4416,61.5322667 2.46773333,58.5584 1.09333333,54.7824 C0,51.3237333 0,48.112 0,41.6869333 L0,22.3130667 C0,15.8885333 0,12.6757333 1.09333333,9.2176 C2.46773333,5.4416 5.4416,2.46773333 9.2176,1.09333333 C12.6757333,0 15.888,0 22.3130667,0 L41.6869333,0 Z" id="Icon-Shape-2备份" fill="#000000"></path>
    </g>
</svg>