<?xml version="1.0" encoding="UTF-8"?>
<svg width="24px" height="24px" viewBox="0 0 24 24" version="1.1" xmlns="http://www.w3.org/2000/svg" xmlns:xlink="http://www.w3.org/1999/xlink">
    <title>Icons_filled_MultipleChoice</title>
    <defs>
        <filter id="filter-1">
            <feColorMatrix in="SourceGraphic" type="matrix" values="0 0 0 0 0.000000 0 0 0 0 0.000000 0 0 0 0 0.000000 0 0 0 0.900000 0"></feColorMatrix>
        </filter>
    </defs>
    <g id="Icons_filled_MultipleChoice" stroke="none" stroke-width="1" fill="none" fill-rule="evenodd">
        <g filter="url(#filter-1)" id="编组备份-3">
            <g transform="translate(2.000000, 4.000000)">
                <path d="M18.7781746,9 L20.8994949,11.1213203 L14.959798,17.0610173 C14.8816931,17.1391222 14.7874122,17.1911921 14.6877393,17.217227 L14.5866684,17.2345837 L14.5866684,17.2345837 L14.4843994,17.2345837 C14.3483069,17.2230126 14.2154096,17.1651571 14.1112698,17.0610173 L11,13.9497475 L13.1213203,11.8284271 L14.535,13.242 L18.7781746,9 Z M10,13 L10,16 L5,16 L5,13 L10,13 Z M3.5,13 L3.5,16 L0.5,16 L0.5,13 L3.5,13 Z M16,6.5 L16,9.5 L5,9.5 L5,6.5 L16,6.5 Z M3.5,6.5 L3.5,9.5 L0.5,9.5 L0.5,6.5 L3.5,6.5 Z M18,0 L18,3 L5,3 L5,0 L18,0 Z M3.5,0 L3.5,3 L0.5,3 L0.5,0 L3.5,0 Z" id="形状结合" fill="#FFFFFF"></path>
            </g>
        </g>
    </g>
</svg>