<?xml version="1.0" encoding="UTF-8"?>
<svg width="32px" height="32px" viewBox="0 0 32 32" version="1.1" xmlns="http://www.w3.org/2000/svg" xmlns:xlink="http://www.w3.org/1999/xlink">
    <title>切片</title>
    <g id="322" stroke="none" stroke-width="1" fill="none" fill-rule="evenodd">
        <g id="Icon-/-Filled-/-commodity2" fill="#FF6146">
            <path d="M16,2.13333333 C18.5036909,2.13333333 20.5333333,3.9838897 20.5333333,6.26666667 L20.5325152,8.79933333 L23.5525959,8.8 C24.2545477,8.8 24.8362829,9.3442442 24.8829761,10.0446413 L26.0385316,27.3779747 C26.0875149,28.1127234 25.5315921,28.7480636 24.7968434,28.7970469 L24.7081514,28.8 L7.29184857,28.8 C6.5554689,28.8 5.95851523,28.2030463 5.95851523,27.4666667 L7.11702391,10.0446413 C7.16371705,9.3442442 7.74545229,8.8 8.44740412,8.8 L11.4665152,8.79933333 L11.4666667,6.26666667 C11.4666667,3.9838897 13.4963091,2.13333333 16,2.13333333 Z M16,4 C14.5626001,4 13.4443595,4.95716419 13.3411198,6.09476963 L13.3333333,6.26666667 L13.3315152,8.79933333 L18.6655152,8.79933333 L18.6666667,6.26666667 C18.6666667,5.11295891 17.6168737,4.10085625 16.2131293,4.00708164 L16,4 Z" id="形状结合"></path>
        </g>
    </g>
</svg>