<?xml version="1.0" encoding="UTF-8"?>
<svg width="24px" height="24px" viewBox="0 0 24 24" version="1.1" xmlns="http://www.w3.org/2000/svg" xmlns:xlink="http://www.w3.org/1999/xlink">
    <title>Icons_filld_makesticker</title>
    <g id="Icons_filld_makesticker" stroke="none" stroke-width="1" fill="none" fill-rule="evenodd" fill-opacity="0.9">
        <path d="M15.2595083,10.0715129 C16.360495,10.2826368 17.1502587,11.0843807 17.6287997,12.4767447 C18.6174999,15.22777 18.8385103,17.529619 18.2918309,19.3822916 C17.4718119,22.1613005 14.7976765,23.3673148 12.8333499,22.9028981 C11.5237989,22.5932869 9.83917324,21.5631265 7.77947305,19.812417 C8.11676445,19.6866127 8.53774896,19.2294952 9.04242661,18.4410646 C9.7744751,17.2974248 10.4179994,16.3043222 10.9729995,15.4617568 C11.2962846,15.4660067 11.5574928,15.4504098 11.7566241,15.4149661 C11.9557554,15.3795223 12.2021328,15.304773 12.4957564,15.1907182 C12.4673768,15.5281051 12.4422837,16.0240329 12.420477,16.6785015 C12.4136805,16.8824824 12.4374447,17.2198349 12.4917698,17.6905591 L13.7162181,17.4515239 C13.638006,16.9052779 13.6186963,16.335475 13.6582889,15.7421151 C13.6978814,15.1487552 13.828539,14.2844566 14.0502615,13.1492193 C13.5082337,13.6500246 12.6719509,14.0132788 11.5414131,14.238982 C10.4108753,14.4646852 9.48742651,13.7740834 8.77106664,12.1671767 C9.3470237,11.708352 10.0330197,11.3192615 10.8290545,10.9999051 C13.3182721,10.001271 14.4698995,9.9200985 15.2595083,10.0715129 Z M7.54005739,13.0365245 C7.90468117,13.6746582 8.21288426,14.1440314 8.46466666,14.4446442 C8.68048015,14.7023123 8.9831669,14.9545989 9.37272691,15.201504 L9.57474635,15.3245081 L7.39962892,18.650876 C7.29471391,18.9097428 7.0224306,18.9696255 6.58277899,18.8305242 C6.14312738,18.6914229 5.68939635,18.3398982 5.22158591,17.7759503 C4.98440971,17.560464 5.23950517,16.7735081 5.98687227,15.4150823 C6.73423937,14.0566565 7.25196775,13.2638039 7.54005739,13.0365245 Z M11.4594196,1.48205267 L11.5247243,1.59640689 L14.5434409,8.81838514 C13.1292537,8.92475094 11.8181015,9.22157475 10.6099841,9.70885656 C9.55288133,10.1352281 8.61988458,10.6315543 7.81099383,11.1978351 L7.47192469,11.4448098 L3.19285638,6.99784832 C2.8943963,6.23474501 2.94235367,5.70214752 3.33672849,5.40005583 C3.73110332,5.09796415 4.19343435,5.07844019 4.7237216,5.34148395 C5.60590291,6.13180275 6.72801931,7.10548089 8.0900708,8.26251837 C8.80922824,8.87342927 9.25381224,8.56629917 9.87894788,8.30440746 C10.5040835,8.04251575 10.9427647,7.5217767 10.7070579,6.71153821 C10.3527571,5.49363474 9.92939749,3.99636275 9.43697909,2.21972226 C9.36709715,1.60853926 9.6299637,1.22138732 10.2255787,1.05826644 C10.7753772,0.907693321 11.1866575,1.0489554 11.4594196,1.48205267 Z M17.8639863,1.21568149 C17.9495666,1.24090741 18.016498,1.30783873 18.0417239,1.39341905 L18.4514521,2.78344446 L19.8222801,3.22573957 C19.9603804,3.27029737 20.0362115,3.41837101 19.9916537,3.55647129 C19.965711,3.63687699 19.9026858,3.69990218 19.8222801,3.72584493 L18.4514521,4.16814005 L18.0417239,5.55816545 C18.0006959,5.69735521 17.8546005,5.77693103 17.7154107,5.73590302 C17.6298304,5.71067709 17.5628991,5.64374578 17.5376732,5.55816545 L17.1279449,4.16814005 L15.757117,3.72584493 C15.6190167,3.68128713 15.5431855,3.5332135 15.5877433,3.39511322 C15.6136861,3.31470752 15.6767113,3.25168232 15.757117,3.22573957 L17.1279449,2.78344446 L17.5376732,1.39341905 C17.5787012,1.2542293 17.7247966,1.17465348 17.8639863,1.21568149 Z" id="形状结合" fill="#000000"></path>
    </g>
</svg>