<?xml version="1.0" encoding="UTF-8"?>
<svg width="80px" height="80px" viewBox="0 0 80 80" version="1.1" xmlns="http://www.w3.org/2000/svg" xmlns:xlink="http://www.w3.org/1999/xlink">
    <!-- Generator: Sketch 59 (86127) - https://sketch.com -->
    <title>3.Icons/Filled/error</title>
    <desc>Created with Sketch.</desc>
    <g id="页面-1" stroke="none" stroke-width="1" fill="none" fill-rule="evenodd" opacity="0.904575893">
        <g id="PlayBTN" transform="translate(-700.000000, -1726.000000)" fill="#FFFFFF">
            <g id="3.Icons/Filled/error" transform="translate(700.000000, 1726.000000)">
                <g id="Icons/Tint-Color/Black" transform="translate(0.784314, 0.784314)">
                    <path d="M39.2156863,0 C60.8739118,0 78.4313725,17.5574608 78.4313725,39.2156863 C78.4313725,60.8739118 60.8739118,78.4313725 39.2156863,78.4313725 C17.5574608,78.4313725 0,60.8739118 0,39.2156863 C0,17.5574608 17.5574608,0 39.2156863,0 Z M39.2156863,4.70588235 C20.1564479,4.70588235 4.70588235,20.1564479 4.70588235,39.2156863 C4.70588235,58.2749247 20.1564479,73.7254902 39.2156863,73.7254902 C58.2749247,73.7254902 73.7254902,58.2749247 73.7254902,39.2156863 C73.7254902,20.1564479 58.2749247,4.70588235 39.2156863,4.70588235 Z M39.2156863,52.5620404 C41.082644,52.5620404 42.4900429,53.9694393 42.4900429,55.8363971 C42.4900429,57.6746324 41.082644,59.1107537 39.2156863,59.1107537 C37.377451,59.1107537 35.9413297,57.6746324 35.9413297,55.8363971 C35.9413297,53.9694393 37.377451,52.5620404 39.2156863,52.5620404 Z M41.8007047,17.377068 L41.4560355,45.0654871 L36.975337,45.0654871 L36.6306679,17.377068 L41.8007047,17.377068 Z" id="图标颜色"></path>
                </g>
            </g>
        </g>
    </g>
</svg>