<?xml version="1.0" encoding="UTF-8"?>
<svg width="24px" height="24px" viewBox="0 0 24 24" version="1.1" xmlns="http://www.w3.org/2000/svg" xmlns:xlink="http://www.w3.org/1999/xlink">
    <!-- Generator: Sketch 55.2 (78181) - https://sketchapp.com -->
    <title>3.Icons/Filled/pause</title>
    <desc>Created with Sketch.</desc>
    <g id="3.Icons/Filled/pause" stroke="none" stroke-width="1" fill="none" fill-rule="evenodd" fill-opacity="0.9">
        <g id="Group" fill="#000000">
            <path d="M6.5,4.5 L8.5,4.5 C9.05228475,4.5 9.5,4.94771525 9.5,5.5 L9.5,18.5 C9.5,19.0522847 9.05228475,19.5 8.5,19.5 L6.5,19.5 C5.94771525,19.5 5.5,19.0522847 5.5,18.5 L5.5,5.5 C5.5,4.94771525 5.94771525,4.5 6.5,4.5 Z M15.5,4.5 L17.5,4.5 C18.0522847,4.5 18.5,4.94771525 18.5,5.5 L18.5,18.5 C18.5,19.0522847 18.0522847,19.5 17.5,19.5 L15.5,19.5 C14.9477153,19.5 14.5,19.0522847 14.5,18.5 L14.5,5.5 C14.5,4.94771525 14.9477153,4.5 15.5,4.5 Z" id="形状"></path>
        </g>
    </g>
</svg>