<?xml version="1.0" encoding="UTF-8"?>
<svg width="24px" height="24px" viewBox="0 0 24 24" version="1.1" xmlns="http://www.w3.org/2000/svg" xmlns:xlink="http://www.w3.org/1999/xlink">
    <title>Icons_filld_stickerAlbum</title>
    <g id="Icons_filld_stickerAlbum" stroke="none" stroke-width="1" fill="none" fill-rule="evenodd" fill-opacity="0.9">
        <path d="M20.8,2 C21.4627417,2 22,2.5372583 22,3.2 L22,20.8 C22,21.4627417 21.4627417,22 20.8,22 L3.2,22 C2.5372583,22 2,21.4627417 2,20.8 L2,3.2 C2,2.5372583 2.5372583,2 3.2,2 L20.8,2 Z M12,5 C8.13400675,5 5,8.13400675 5,12 C5,15.8659932 8.13400675,19 12,19 C15.8659932,19 19,15.8659932 19,12 C19,8.13400675 15.8659932,5 12,5 Z M15.8343049,12.7 C15.6574749,14.662275 14.0083149,16.2 12,16.2 C9.99168511,16.2 8.34252513,14.662275 8.16569506,12.7 L8.16569506,12.7 Z M9.55,8.85 C10.129899,8.85 10.6,9.32010101 10.6,9.9 C10.6,10.479899 10.129899,10.95 9.55,10.95 C8.97010101,10.95 8.5,10.479899 8.5,9.9 C8.5,9.32010101 8.97010101,8.85 9.55,8.85 Z M14.45,8.85 C15.029899,8.85 15.5,9.32010101 15.5,9.9 C15.5,10.479899 15.029899,10.95 14.45,10.95 C13.870101,10.95 13.4,10.479899 13.4,9.9 C13.4,9.32010101 13.870101,8.85 14.45,8.85 Z" id="形状结合" fill="#000000"></path>
    </g>
</svg>