<?xml version="1.0" encoding="UTF-8"?>
<svg width="286px" height="170px" viewBox="0 0 286 170" version="1.1" xmlns="http://www.w3.org/2000/svg" xmlns:xlink="http://www.w3.org/1999/xlink">
    <title>编组 43</title>
    <defs>
        <linearGradient x1="50%" y1="74.2207942%" x2="50%" y2="100%" id="linearGradient-1">
            <stop stop-color="#FFFFFF" stop-opacity="0.08" offset="0%"></stop>
            <stop stop-color="#000000" stop-opacity="0" offset="100%"></stop>
        </linearGradient>
    </defs>
    <g id="页面-1" stroke="none" stroke-width="1" fill="none" fill-rule="evenodd">
        <g id="强提醒_首次引导提示备份" transform="translate(-64.000000, -532.000000)">
            <g id="编组-44" transform="translate(0.000000, 343.000000)">
                <g id="编组-43" transform="translate(64.000000, 189.000000)">
                    <path d="M30.7666224,5.70659909e-16 L255.233378,3.05667665e-15 C265.931602,-1.77601716e-15 269.811037,1.11390733 273.722148,3.20559245 C277.63326,5.29727756 280.702722,8.36674045 282.794408,12.2778516 C284.886093,16.1889627 286,20.0683975 286,30.7666224 L286,170 L286,170 L0,170 L2.64234052e-15,30.7666224 C-1.53527594e-15,20.0683975 1.11390733,16.1889627 3.20559245,12.2778516 C5.29727756,8.36674045 8.36674045,5.29727756 12.2778516,3.20559245 C16.1889627,1.11390733 20.0683975,-3.31569841e-16 30.7666224,5.70659909e-16 Z" id="蒙版" fill="url(#linearGradient-1)"></path>
                    <path d="M24,6 L262,6 C271.941125,6 280,14.0588745 280,24 L280,170 L280,170 L6,170 L6,24 C6,14.0588745 14.0588745,6 24,6 Z" id="矩形" fill="#2C2C2C"></path>
                    <g id="编组-23" opacity="0.3" transform="translate(221.000000, 16.238084)">
                        <g id="Battery" transform="translate(30.479976, 0.001916)">
                            <path d="M2.46132987,0.36 L13.3786701,0.36 C14.1325772,0.36 14.4110217,0.425772516 14.6879963,0.573900155 C14.9372206,0.707186765 15.1328132,0.90277945 15.2660998,1.15200374 C15.4142275,1.42897835 15.48,1.70742285 15.48,2.46132987 L15.48,2.46132987 L15.48,5.69867013 C15.48,6.45257715 15.4142275,6.73102165 15.2660998,7.00799626 C15.1328132,7.25722055 14.9372206,7.45281323 14.6879963,7.58609985 C14.4110217,7.73422748 14.1325772,7.8 13.3786701,7.8 L13.3786701,7.8 L2.46132987,7.8 C1.70742285,7.8 1.42897835,7.73422748 1.15200374,7.58609985 C0.90277945,7.45281323 0.707186765,7.25722055 0.573900155,7.00799626 C0.425772516,6.73102165 0.36,6.45257715 0.36,5.69867013 L0.36,5.69867013 L0.36,2.46132987 C0.36,1.70742285 0.425772516,1.42897835 0.573900155,1.15200374 C0.707186765,0.90277945 0.90277945,0.707186765 1.15200374,0.573900155 C1.42897835,0.425772516 1.70742285,0.36 2.46132987,0.36 L2.46132987,0.36 Z" id="Border" stroke="#FFFFFF" stroke-width="0.72" opacity="0.35"></path>
                            <path d="M16.56,2.64 L16.56,5.52 C17.1394064,5.27608091 17.5161874,4.70865596 17.5161874,4.08 C17.5161874,3.45134404 17.1394064,2.88391909 16.56,2.64" id="Cap" fill="#FFFFFF" fill-rule="nonzero" opacity="0.4"></path>
                            <path d="M2.67066493,1.44 L13.1693351,1.44 C13.5972641,1.44 13.7524415,1.48455629 13.9088859,1.5682237 C14.0653304,1.65189111 14.1881089,1.77466963 14.2717763,1.93111408 C14.3554437,2.08755853 14.4,2.24273592 14.4,2.67066493 L14.4,5.48933507 C14.4,5.91726408 14.3554437,6.07244147 14.2717763,6.22888592 C14.1881089,6.38533037 14.0653304,6.50810889 13.9088859,6.5917763 C13.7524415,6.67544371 13.5972641,6.72 13.1693351,6.72 L2.67066493,6.72 C2.24273592,6.72 2.08755853,6.67544371 1.93111408,6.5917763 C1.77466963,6.50810889 1.65189111,6.38533037 1.5682237,6.22888592 C1.48455629,6.07244147 1.44,5.91726408 1.44,5.48933507 L1.44,2.67066493 C1.44,2.24273592 1.48455629,2.08755853 1.5682237,1.93111408 C1.65189111,1.77466963 1.77466963,1.65189111 1.93111408,1.5682237 C2.08755853,1.48455629 2.24273592,1.44 2.67066493,1.44 Z" id="Capacity" fill="#FFFFFF" fill-rule="nonzero"></path>
                        </g>
                        <path d="M21.3602899,1.64482371 C22.9620973,1.64489383 24.5026533,2.25985362 25.6635481,3.3626001 C25.7509665,3.44773626 25.8906954,3.44666234 25.9767927,3.36019257 L26.8124329,2.51755523 C26.8560279,2.47369801 26.8803338,2.41429086 26.879976,2.35247956 C26.8796102,2.29066826 26.8546107,2.23154921 26.8105053,2.18820441 C23.7635283,-0.729401471 18.9565697,-0.729401471 15.9095927,2.18820441 C15.8654552,2.23151704 15.840412,2.29061814 15.84,2.35242952 C15.839598,2.41424091 15.8638607,2.47366612 15.9074241,2.51755523 L16.7433053,3.36019257 C16.8293476,3.44679282 16.9691844,3.44786758 17.0565499,3.3626001 C18.2175925,2.25978123 19.7583255,1.64481967 21.3602899,1.64482371 L21.3602899,1.64482371 Z M21.3602899,4.38628408 C22.2403791,4.3862302 23.0890613,4.71307655 23.7414309,5.30331425 C23.829667,5.38708244 23.9686619,5.38526635 24.0546755,5.29922144 L24.889352,4.45658411 C24.933308,4.41238539 24.9576973,4.35242597 24.9570754,4.29012033 C24.9564293,4.2278147 24.9308249,4.16836314 24.8859785,4.12506651 C22.8993821,2.27869235 19.8228845,2.27869235 17.836288,4.12506651 C17.7914138,4.16836261 17.765811,4.22784396 17.7652117,4.29016973 C17.7646332,4.3524955 17.7891074,4.41244922 17.8331556,4.45658411 L18.6675911,5.29922144 C18.7536047,5.38526635 18.8925996,5.38708244 18.9808357,5.30331425 C19.632774,4.71346655 20.4807825,4.38664818 21.3602899,4.38628408 L21.3602899,4.38628408 Z M22.9643433,6.39729826 C23.008983,6.35352492 23.0335664,6.29328688 23.0322893,6.2308064 C23.0310122,6.16832591 23.0039878,6.10914097 22.9575965,6.06722518 C22.0355213,5.28798992 20.6850586,5.28798992 19.7629834,6.06722518 C19.7165599,6.10910726 19.6894913,6.16827358 19.6881685,6.23075439 C19.6868458,6.29323519 19.7113862,6.35349224 19.7559956,6.39729826 L21.2000533,7.85313482 C21.2423775,7.89592081 21.3000813,7.92 21.3602899,7.92 C21.4204986,7.92 21.4782023,7.89592081 21.5205266,7.85313482 L22.9643433,6.39729826 Z" id="Wifi" fill="#FFFFFF" fill-rule="nonzero"></path>
                        <path d="M0.72,5.04191589 L1.44,5.04191589 C1.83764502,5.04191589 2.16,5.36427087 2.16,5.76191589 L2.16,7.20191589 C2.16,7.59956091 1.83764502,7.92191589 1.44,7.92191589 L0.72,7.92191589 C0.32235498,7.92191589 0,7.59956091 0,7.20191589 L0,5.76191589 C0,5.36427087 0.32235498,5.04191589 0.72,5.04191589 L0.72,5.04191589 Z M4.08,3.60191589 L4.8,3.60191589 C5.19764502,3.60191589 5.52,3.92427087 5.52,4.32191589 L5.52,7.20191589 C5.52,7.59956091 5.19764502,7.92191589 4.8,7.92191589 L4.08,7.92191589 C3.68235498,7.92191589 3.36,7.59956091 3.36,7.20191589 L3.36,4.32191589 C3.36,3.92427087 3.68235498,3.60191589 4.08,3.60191589 Z M7.44,1.92191589 L8.16,1.92191589 C8.55764502,1.92191589 8.88,2.24427087 8.88,2.64191589 L8.88,7.20191589 C8.88,7.59956091 8.55764502,7.92191589 8.16,7.92191589 L7.44,7.92191589 C7.04235498,7.92191589 6.72,7.59956091 6.72,7.20191589 L6.72,2.64191589 C6.72,2.24427087 7.04235498,1.92191589 7.44,1.92191589 Z M10.8,0.241915893 L11.52,0.241915893 C11.917645,0.241915893 12.24,0.564270873 12.24,0.961915893 L12.24,7.20191589 C12.24,7.59956091 11.917645,7.92191589 11.52,7.92191589 L10.8,7.92191589 C10.402355,7.92191589 10.08,7.59956091 10.08,7.20191589 L10.08,0.961915893 C10.08,0.564270873 10.402355,0.241915893 10.8,0.241915893 L10.8,0.241915893 Z" id="Cellular-Connection" fill="#FFFFFF" fill-rule="nonzero"></path>
                    </g>
                    <rect id="矩形" fill="#404040" x="12" y="41" width="262" height="71" rx="4"></rect>
                    <rect id="矩形备份-4" fill="#FFFFFF" opacity="0.1" x="24" y="82" width="130" height="18" rx="2"></rect>
                    <g id="编组备份-4" transform="translate(251.000000, 53.000000)" fill="#FFFFFF">
                        <circle id="椭圆形" fill-opacity="0.04" cx="7.2" cy="7.2" r="7.2"></circle>
                        <path d="M7.6,3.6 L7.6,6.799 L10.8,6.8 L10.8,7.6 L7.6,7.599 L7.6,10.8 L6.8,10.8 L6.8,7.599 L3.6,7.6 L3.6,6.8 L6.8,6.799 L6.8,3.6 L7.6,3.6 Z" id="Rectangle-47" fill-opacity="0.4" transform="translate(7.200000, 7.200000) scale(1, -1) rotate(-45.000000) translate(-7.200000, -7.200000) "></path>
                    </g>
                    <path d="M29.34,67.104 C30.3,67.104 30.792,66.6 30.792,65.592 L30.792,56.34 L29.604,56.34 L29.604,65.292 C29.604,65.76 29.364,66 28.908,66 C28.404,66 27.876,65.964 27.3,65.916 L27.576,67.104 L29.34,67.104 Z M34.572,65.064 L35.604,64.356 C35.136,62.772 34.464,60.936 33.6,58.824 L32.556,59.472 C33.396,61.536 34.068,63.396 34.572,65.064 Z M25.332,65.004 C26.232,63.756 26.964,61.944 27.516,59.58 L26.376,59.124 C25.932,61.212 25.248,62.88 24.336,64.128 L25.332,65.004 Z M39.408,67.188 L39.408,62.028 C39.696,62.436 40.02,62.952 40.404,63.576 L41.04,62.616 C40.488,62.016 39.948,61.452 39.408,60.948 L39.408,60.444 L40.788,60.444 L40.788,59.352 L39.408,59.352 L39.408,57.72 C39.984,57.612 40.524,57.492 41.04,57.348 L40.644,56.268 C39.48,56.628 38.16,56.88 36.672,57 L36.9,58.068 C37.38,58.02 37.86,57.96 38.316,57.9 L38.316,59.352 L36.66,59.352 L36.66,60.444 L38.184,60.444 C37.8,61.656 37.2,62.736 36.36,63.696 L36.864,64.968 C37.452,64.128 37.932,63.192 38.316,62.184 L38.316,67.188 L39.408,67.188 Z M46.788,60.192 L46.788,56.556 L41.52,56.556 L41.52,60.192 L46.788,60.192 Z M45.684,59.172 L42.636,59.172 L42.636,57.564 L45.684,57.564 L45.684,59.172 Z M47.472,66.828 L47.472,65.748 L44.664,65.748 L44.664,64.416 L46.812,64.416 L46.812,63.396 L44.664,63.396 L44.664,62.148 L47.184,62.148 L47.184,61.116 L41.148,61.116 L41.148,62.148 L43.512,62.148 L43.512,63.396 L41.424,63.396 L41.424,64.416 L43.512,64.416 L43.512,65.748 L40.692,65.748 L40.692,66.828 L47.472,66.828 Z M49.296,67.236 C50.1,65.652 50.52,63.54 50.568,60.912 L50.568,58.116 L59.328,58.116 L59.328,57.06 L55.056,57.06 C54.912,56.7 54.756,56.376 54.612,56.088 L53.46,56.28 C53.616,56.52 53.76,56.784 53.892,57.06 L49.44,57.06 L49.44,60.912 C49.416,63.288 49.08,65.136 48.432,66.468 L49.296,67.236 Z M54.324,67.26 C55.116,67.26 55.512,66.852 55.512,66.048 L55.512,63.084 L57.912,63.084 C57.528,63.672 57.108,64.164 56.652,64.572 L57.504,65.256 C58.104,64.632 58.644,63.864 59.148,62.928 L59.148,62.04 L56.076,62.04 L56.232,61.884 L55.836,61.596 C56.676,61.068 57.444,60.42 58.164,59.676 L58.164,58.86 L51.648,58.86 L51.648,59.832 L56.736,59.832 C56.196,60.288 55.62,60.684 54.996,61.044 C54.528,60.756 54.012,60.48 53.46,60.192 L52.788,60.852 C53.604,61.26 54.312,61.656 54.888,62.04 L50.952,62.04 L50.952,63.084 L54.384,63.084 L54.384,65.784 C54.384,66.096 54.228,66.264 53.94,66.264 C53.412,66.264 52.872,66.228 52.296,66.18 L52.536,67.26 L54.324,67.26 Z M61.968,67.128 C62.748,67.128 63.144,66.732 63.144,65.964 L63.144,62.604 C63.444,62.46 63.744,62.304 64.056,62.148 L64.056,60.984 C63.756,61.152 63.456,61.308 63.144,61.452 L63.144,59.46 L64.26,59.46 L64.26,58.368 L63.144,58.368 L63.144,56.196 L61.992,56.196 L61.992,58.368 L60.636,58.368 L60.636,59.46 L61.992,59.46 L61.992,61.932 C61.488,62.112 60.984,62.268 60.468,62.388 L60.744,63.54 C61.164,63.396 61.584,63.252 61.992,63.096 L61.992,65.664 C61.992,65.94 61.848,66.084 61.572,66.084 C61.284,66.084 60.972,66.06 60.66,66.024 L60.912,67.128 L61.968,67.128 Z M70.476,60.864 L70.476,56.532 L65.076,56.532 L65.076,60.864 L70.476,60.864 Z M69.36,58.26 L66.18,58.26 L66.18,57.456 L69.36,57.456 L69.36,58.26 Z M69.36,59.94 L66.18,59.94 L66.18,59.124 L69.36,59.124 L69.36,59.94 Z M64.452,67.224 C64.896,66.66 65.256,66.048 65.532,65.388 C65.868,65.94 66.252,66.324 66.672,66.54 C67.26,66.828 68.352,66.972 69.948,66.984 C70.332,66.996 70.752,67.008 71.22,67.008 L71.532,65.904 C71.076,65.952 70.524,65.976 69.876,65.976 C69.276,65.976 68.76,65.94 68.316,65.892 L68.316,64.62 L70.68,64.62 L70.68,63.612 L68.316,63.612 L68.316,62.508 L71.196,62.508 L71.196,61.488 L64.296,61.488 L64.296,62.508 L67.224,62.508 L67.224,65.64 L67.116,65.604 C66.648,65.412 66.24,64.956 65.88,64.26 C65.964,63.864 66.024,63.456 66.048,63.024 L65.04,62.904 C64.944,64.224 64.464,65.412 63.6,66.492 L64.452,67.224 Z M83.04,60.768 L83.04,56.556 L78.012,56.556 L78.012,60.768 L83.04,60.768 Z M73.752,67.164 L73.752,66.576 L76.404,66.576 L76.404,67.152 L77.292,67.152 L77.292,63.432 L77.928,64.26 C78.264,63.852 78.54,63.396 78.78,62.892 L80.124,62.892 L80.124,63.9 L78.384,63.9 L78.384,64.884 L80.124,64.884 L80.124,65.94 L77.748,65.94 L77.748,67.008 L83.484,67.008 L83.484,65.94 L81.216,65.94 L81.216,64.884 L82.92,64.884 L82.92,63.9 L81.216,63.9 L81.216,62.892 L83.184,62.892 L83.184,61.896 L81.216,61.896 L81.216,61.056 L80.124,61.056 L80.124,61.896 L79.152,61.896 C79.224,61.656 79.284,61.392 79.344,61.116 L78.36,61.008 C78.168,61.944 77.808,62.748 77.292,63.408 L77.292,58.788 L76.2,58.788 L76.2,57.564 L77.508,57.564 L77.508,56.58 L72.528,56.58 L72.528,57.564 L73.944,57.564 L73.944,58.788 L72.852,58.788 L72.852,67.164 L73.752,67.164 Z M81.972,58.224 L79.068,58.224 L79.068,57.456 L81.972,57.456 L81.972,58.224 Z M75.336,58.788 L74.808,58.788 L74.808,57.564 L75.336,57.564 L75.336,58.788 Z M81.972,59.868 L79.068,59.868 L79.068,59.112 L81.972,59.112 L81.972,59.868 Z M76.404,63.66 L73.752,63.66 L73.752,62.904 L74.1,63.216 C74.604,62.628 74.856,61.692 74.868,60.42 L74.868,59.724 L75.312,59.724 L75.312,62.016 C75.312,62.46 75.504,62.688 75.912,62.688 L76.404,62.688 L76.404,63.66 Z M76.404,61.992 L76.092,61.992 C75.984,61.992 75.936,61.932 75.936,61.836 L75.936,59.724 L76.404,59.724 L76.404,61.992 Z M73.752,62.628 L73.752,59.724 L74.256,59.724 L74.256,60.42 C74.244,61.38 74.076,62.124 73.752,62.628 Z M76.404,65.616 L73.752,65.616 L73.752,64.56 L76.404,64.56 L76.404,65.616 Z" id="小程序提醒" fill-opacity="0.3" fill="#FFFFFF" fill-rule="nonzero"></path>
                </g>
            </g>
        </g>
    </g>
</svg>