<?xml version="1.0" encoding="UTF-8"?>
<svg width="61px" height="16px" viewBox="0 0 61 16" version="1.1" xmlns="http://www.w3.org/2000/svg" xmlns:xlink="http://www.w3.org/1999/xlink">
    <title>miniprogram_game&amp;word_dm</title>
    <g id="miniprogram_game&amp;word_dm" stroke="none" stroke-width="1" fill="none" fill-rule="evenodd">
        <g id="Full-Emblem" transform="translate(2.000000, 1.000000)" fill="#FFFFFF">
            <path d="M1.16456756,4.13996897 C3.01683063,2.10184225 6.42042646,2.17815142 8.76654596,4.31032963 C11.1128377,6.44268009 11.5131594,9.8235382 9.66106862,11.8616649 C7.80863329,13.8997916 4.40503746,13.8233102 2.05891796,11.6909598 C-0.287201545,9.55878155 -0.687695513,6.17809569 1.16456756,4.13996897 Z M7.60881695,4.89892657 C6.60818492,4.36183401 5.43443615,4.60247491 4.98691644,5.43619138 C4.53956898,6.27008011 4.98794997,7.38130015 5.98840974,7.91822045 C6.98886951,8.45514075 8.16261828,8.21449986 8.61013799,7.38078338 C9.05765771,6.54706691 8.60927672,5.43584687 7.60881695,4.89892657 Z M13.2238852,2.58252354 C13.5112074,3.65676565 13.0018479,4.7175313 12.0864824,4.95168475 C11.1709446,5.18583819 10.1959786,4.50460327 9.90865647,3.43036117 C9.62133435,2.35611906 10.1305215,1.29535341 11.0460593,1.06119996 C11.9614249,0.827046515 12.9365631,1.50811298 13.2238852,2.58252354 Z" id="形状结合" opacity="0.219999999"></path>
            <path d="M53.9076727,0.34691745 C53.9076727,1.50503289 53.9357977,2.70659815 53.9899047,3.94642112 L53.9899047,3.94642112 L58.3701645,3.39960918 L58.4223965,4.09589944 L54.0266011,4.64435099 C54.1551723,6.35447049 54.3665112,7.73010831 54.6592785,8.77263082 C55.7365979,7.85253297 56.6357927,6.75016448 57.3549878,5.4649788 L57.3549878,5.4649788 L58.0251651,5.85957972 C57.1972202,7.28522584 56.1582043,8.51056553 54.9115994,9.5391513 C55.2081168,10.2857231 55.6594552,10.9710826 56.2701684,11.5941367 C56.5498107,11.8083799 56.7951674,11.9155014 57.0048992,11.9155014 C57.2151666,11.9155014 57.3726663,11.73651 57.4776661,11.3798935 C57.6391837,10.8191449 57.7382907,10.1939046 57.780612,9.51073129 L57.780612,9.51073129 L58.5287356,9.95151473 C58.4055216,10.6387871 58.2825754,11.2088269 58.1601649,11.6476975 C57.9498974,12.361477 57.5826659,12.7189133 57.0576669,12.7189133 C56.6376677,12.7189133 56.2176685,12.5396486 55.7976692,12.1833054 C55.1660633,11.6564421 54.6662428,10.933918 54.293922,10.0231113 C53.3818701,10.6920746 52.3691041,11.2659402 51.2550883,11.743615 L51.2550883,11.743615 L50.8380355,11.0063344 C52.0222298,10.5529805 53.0840135,9.97419608 54.0263332,9.27380678 C53.6368697,8.06841575 53.3722273,6.55860268 53.234549,4.74327449 L53.234549,4.74327449 L51.1254457,5.00643286 L51.0729458,4.3101426 L53.195174,4.04534461 C53.1450848,2.96483767 53.120442,1.73321278 53.120442,0.34691745 L53.120442,0.34691745 Z M33.4561481,7.70323929 L34.1191223,8.13038917 C33.8933122,9.24275865 33.5785241,10.7697639 33.1735117,12.7189133 L33.1735117,12.7189133 L32.4472309,12.2508838 C32.8587236,10.6866142 33.1598036,9.2992114 33.4561481,7.70323929 L33.4561481,7.70323929 Z M25.0909091,0.681295716 L25.0909091,11.3339921 C25.0909091,12.2569105 24.5858253,12.7189133 23.5767233,12.7189133 L23.5767233,12.7189133 L21.9794224,12.7189133 L21.7471264,11.9223662 L23.36787,11.9223662 C24.0506389,11.9223662 24.2554962,11.7068555 24.2554962,11.1741935 L24.2554962,11.1741935 L24.2554962,0.681295716 L25.0909091,0.681295716 Z M39.1347962,2.35318704 L39.1347962,3.04173133 L36.4467085,3.04173133 L36.4467085,5.74969928 L38.8185506,5.74969928 C38.7478256,8.60980633 38.7131354,10.3573793 38.7131354,10.9929586 C38.6776385,12.0165873 38.238767,12.4759771 37.3954453,12.4759771 L37.3954453,12.4759771 L36.5870828,12.4759771 L36.351781,11.6815029 L37.3427377,11.6815029 C37.7990888,11.6815029 38.0279366,11.5407135 38.0279366,10.9399937 C38.0588619,9.59019828 38.0900562,8.07096908 38.1215195,6.38527863 L38.1215195,6.38527863 L36.4467085,6.38527863 L36.4467085,6.65010335 C36.4467085,9.02677016 35.9919709,11.0478152 35.0889498,12.7189133 L35.0889498,12.7189133 L34.4535005,12.3503205 C35.3245206,10.6957064 35.7615096,8.81328901 35.7615096,6.7030683 L35.7615096,6.7030683 L35.7615096,3.04173133 L34.7603341,3.04173133 L34.7603341,2.35318704 L39.1347962,2.35318704 Z M51.0288194,2.35318704 L51.0288194,3.04806986 C50.8269341,4.86709199 50.3780822,6.48566715 49.6884239,7.93815768 C50.3097604,8.7440363 50.9190565,9.53627907 51.5067921,10.3034319 L51.5067921,10.3034319 L50.7415318,10.7337792 C50.258519,10.0506233 49.7752262,9.37701236 49.2922134,8.70776494 C48.5249931,10.0819857 47.5231266,11.2993942 46.2812937,12.384535 L46.2812937,12.384535 L45.8223615,11.6097461 C47.0389938,10.5475136 48.0114595,9.32737788 48.745919,7.95397526 C47.8890963,6.77665614 47.0319936,5.61869993 46.1751709,4.48556096 L46.1751709,4.48556096 L46.7601064,4.15639159 C47.5715679,5.19953396 48.3569887,6.21295019 49.1194488,7.20018558 C49.691504,5.93805149 50.0737141,4.55346748 50.2685993,3.04806986 L50.2685993,3.04806986 L46.0348872,3.04806986 L46.0348872,2.35318704 L51.0288194,2.35318704 Z M44.1769475,4.35945664 L44.1769475,5.11351667 L42.4652038,6.94480531 L42.4652038,7.53728105 L44.8192268,7.53728105 L44.8192268,8.23747965 L42.4652038,8.23747965 L42.4652038,10.7689669 C42.4652038,11.8459207 42.0724117,12.384535 41.2881923,12.384535 L41.2881923,12.384535 L40.2512102,12.384535 L40.0123686,11.5766135 L41.0741902,11.5766135 C41.7028213,11.5766135 41.769697,11.2358576 41.769697,10.5532464 L41.769697,10.5532464 L41.769697,8.23747965 L39.4691745,8.23747965 L39.4691745,7.53728105 L41.769697,7.53728105 L41.769697,6.62163672 L43.1607106,5.11351667 L40.0041797,5.11351667 L40.0041797,4.35945664 L44.1769475,4.35945664 Z M21.2887067,3.35632184 L22.0815047,3.79471646 C21.2775927,6.01289499 20.3340434,8.0967708 19.2477221,10.0438871 L19.2477221,10.0438871 L18.4033438,9.57683036 C19.4018931,7.94390593 20.3633958,5.87040309 21.2887067,3.35632184 L21.2887067,3.35632184 Z M27.7884479,3.35632184 C28.8010226,5.22826951 29.796472,7.20351007 30.7753396,9.27988597 L30.7753396,9.27988597 L30.021549,9.70950888 C29.0812816,7.7399319 28.105676,5.75363387 27.0971787,3.75007542 L27.0971787,3.75007542 Z M32.4513025,4.02507837 C33.1895303,4.56323003 33.5450299,4.85785898 34.1191223,5.28793348 L34.1191223,5.28793348 L33.7279964,6.03134796 C32.9963849,5.42561317 32.7574342,5.19437831 32.1128527,4.66879377 L32.1128527,4.66879377 Z M40.6233291,0.34691745 L41.2607143,0.726971456 C41.101368,1.25274998 40.9317761,1.75484479 40.7540955,2.23854989 L40.7540955,2.23854989 L44.4848485,2.23854989 L44.4848485,2.94850415 L40.4812385,2.94850415 C40.1789928,3.69579509 39.8530204,4.38986732 39.5022428,5.02821317 L39.5022428,5.02821317 L38.800418,4.60942932 C39.5278568,3.38400592 40.1353141,1.96298287 40.6233291,0.34691745 L40.6233291,0.34691745 Z M55.5032872,1.01567398 C56.0513314,1.44252801 56.6149103,1.86771247 57.1912226,2.29178388 L57.1912226,2.29178388 L56.8054015,3.02194357 C56.2008211,2.46708899 55.7034558,2.04079148 55.184953,1.61811138 L55.184953,1.61811138 Z M32.8296788,0.681295716 C33.4709259,1.20102968 34.009516,1.6265246 34.4535005,1.9654445 L34.4535005,1.9654445 L34.0310826,2.68756531 C33.4795525,2.20671914 33.0246409,1.79995849 32.4472309,1.33500806 L32.4472309,1.33500806 Z M36.8021765,0.012539185 C37.0224193,0.440203046 37.2426621,0.88246638 37.4629049,1.3378189 L37.4629049,1.3378189 L36.7400723,1.68443051 C36.5177088,1.19182417 36.3129163,0.74377139 36.1253918,0.336999878 L36.1253918,0.336999878 Z" id="形状结合" opacity="0.300000012"></path>
        </g>
    </g>
</svg>