<?xml version="1.0" encoding="UTF-8"?>
<svg width="61px" height="16px" viewBox="0 0 61 16" version="1.1" xmlns="http://www.w3.org/2000/svg" xmlns:xlink="http://www.w3.org/1999/xlink">
    <title>miniprogram_logo&amp;word_dm</title>
    <g id="miniprogram_logo&amp;word_dm" stroke="none" stroke-width="1" fill="none" fill-rule="evenodd">
        <g id="编组" fill="#FFFFFF">
            <path d="M25.852,14.74 C26.804,14.74 27.294,14.236 27.294,13.256 L27.294,2.266 L26.258,2.266 L26.258,12.99 C26.258,13.508 25.992,13.774 25.474,13.774 C24.844,13.774 24.172,13.746 23.472,13.69 L23.71,14.74 L25.852,14.74 Z M32.11,12.36 L33.006,11.73 C32.418,9.868 31.564,7.684 30.458,5.178 L29.548,5.752 C30.626,8.174 31.48,10.372 32.11,12.36 Z M20.868,12.29 C21.96,10.834 22.842,8.706 23.514,5.906 L22.506,5.514 C21.946,8.034 21.12,10.036 20,11.52 L20.868,12.29 Z M37.346,14.838 L37.346,8.524 C37.738,9.042 38.228,9.742 38.788,10.61 L39.348,9.77 C38.676,8.972 38.004,8.244 37.346,7.6 L37.346,6.858 L39.152,6.858 L39.152,5.892 L37.346,5.892 L37.346,3.694 C38.046,3.554 38.718,3.4 39.348,3.218 L38.998,2.266 C37.654,2.686 36.1,2.98 34.35,3.148 L34.546,4.1 C35.176,4.03 35.792,3.946 36.38,3.862 L36.38,5.892 L34.336,5.892 L34.336,6.858 L36.282,6.858 C35.834,8.454 35.078,9.868 34.014,11.114 L34.448,12.234 C35.246,11.128 35.89,9.896 36.38,8.524 L36.38,14.838 L37.346,14.838 Z M45.928,6.62 L45.928,2.574 L40.118,2.574 L40.118,6.62 L45.928,6.62 Z M44.948,5.71 L41.112,5.71 L41.112,3.47 L44.948,3.47 L44.948,5.71 Z M46.866,14.39 L46.866,13.438 L43.478,13.438 L43.478,11.548 L46.096,11.548 L46.096,10.638 L43.478,10.638 L43.478,8.846 L46.53,8.846 L46.53,7.922 L39.572,7.922 L39.572,8.846 L42.442,8.846 L42.442,10.638 L39.894,10.638 L39.894,11.548 L42.442,11.548 L42.442,13.438 L39.012,13.438 L39.012,14.39 L46.866,14.39 Z M48.868,14.866 C49.82,13.074 50.31,10.708 50.366,7.74 L50.366,4.142 L60.698,4.142 L60.698,3.218 L55.63,3.218 C55.448,2.77 55.252,2.364 55.056,2 L54.034,2.168 C54.244,2.49 54.44,2.84 54.622,3.218 L49.358,3.218 L49.358,7.74 C49.33,10.484 48.91,12.64 48.112,14.194 L48.868,14.866 Z M54.888,14.922 C55.714,14.922 56.134,14.502 56.134,13.676 L56.134,9.938 L59.354,9.938 C58.864,10.722 58.332,11.394 57.744,11.954 L58.5,12.556 C59.214,11.8 59.858,10.876 60.432,9.784 L60.432,9 L56.876,9 L57.086,8.79 C56.89,8.636 56.68,8.482 56.456,8.342 C57.464,7.684 58.402,6.9 59.256,5.99 L59.256,5.262 L51.822,5.262 L51.822,6.13 L57.996,6.13 C57.296,6.774 56.526,7.348 55.686,7.838 C55.126,7.488 54.51,7.138 53.838,6.802 L53.236,7.39 C54.342,7.95 55.266,8.496 55.994,9 L51.01,9 L51.01,9.938 L55.126,9.938 L55.126,13.438 C55.126,13.83 54.93,14.04 54.552,14.04 C53.936,14.04 53.292,14.012 52.62,13.97 L52.83,14.922 L54.888,14.922 Z" id="小程序" fill-rule="nonzero" opacity="0.300000012"></path>
            <g id="3.Icons/Filled/mini-program" fill-opacity="0.3">
                <g id="icon9">
                    <path d="M11.3361967,8.66050077 L11.1789137,8.66304579 C10.7033442,8.66304579 10.426618,8.31418144 10.6053953,7.91197299 C10.7278216,7.62631149 11.0040274,7.40569744 11.3302259,7.3332391 C12.2029744,7.12257565 12.7959531,6.44047769 12.7959531,5.64749734 C12.7959531,4.68611492 11.8780792,3.90266241 10.7316294,3.90266241 C9.58517963,3.90266241 8.66730564,4.68611492 8.66730564,5.64749734 L8.66730564,10.4398296 C8.66730564,12.1277754 7.15859847,13.4873269 5.30031949,13.4873269 C3.44204051,13.4873269 1.93333333,12.1277754 1.93333333,10.4398296 C1.93333333,8.95977617 3.1015619,7.69644178 4.69329073,7.45623003 L4.82108626,7.45623003 C5.18112878,7.45623003 5.44046858,7.67176377 5.4404683,7.9795716 C5.44062186,8.03231416 5.43934077,8.05668642 5.4341334,8.08793065 C5.42711363,8.13004926 5.41344505,8.17036253 5.39460473,8.20730283 C5.27985616,8.47504949 4.98651411,8.70685787 4.66977413,8.78603673 C3.8033311,8.99517815 3.20404686,9.67311146 3.20404686,10.4398296 C3.20404686,11.401212 4.12192084,12.1846645 5.26837061,12.1846645 C6.41482037,12.1846645 7.33269436,11.401212 7.33269436,10.4398296 L7.33269436,5.64749734 C7.33269436,3.95955157 8.84140153,2.6 10.6996805,2.6 C12.5579595,2.6 14.0666667,3.95955157 14.0666667,5.64749734 C14.0666667,7.13540842 12.9259173,8.38402762 11.3361967,8.66050077 Z" id="图标颜色"></path>
                </g>
            </g>
        </g>
    </g>
</svg>