<?xml version="1.0" encoding="UTF-8"?>
<svg width="24px" height="24px" viewBox="0 0 24 24" version="1.1" xmlns="http://www.w3.org/2000/svg" xmlns:xlink="http://www.w3.org/1999/xlink">
    <title>分享</title>
    <g id="定稿" stroke="none" stroke-width="1" fill="none" fill-rule="evenodd">
        <g id="分享">
            <rect id="矩形" x="0" y="0" width="24" height="24"></rect>
            <path d="M13.0037016,2.99802933 C13.2672664,2.99802933 13.5201744,3.1020816 13.7074292,3.28755945 L20.8787239,10.3907995 C21.2409224,10.7495607 21.2713559,11.3166531 20.9682047,11.7103941 L20.8787239,11.8117392 L13.7074292,18.9149792 C13.3150475,19.3036373 12.6818898,19.3006186 12.2932317,18.908237 C12.1077539,18.7209821 12.0037016,18.4680742 12.0037016,18.2045094 L12.0037016,14.9215809 C9.66507898,15.1095425 6.25164032,16.4913425 4.47586441,20.8218277 C4.18084107,21.5412846 3.45710811,21.5350694 3.29959869,20.6025387 C2.05311584,13.2227669 6.25164032,8.21479797 12.0037016,7.30837855 L12.0037016,3.99802933 C12.0037016,3.44574458 12.4514169,2.99802933 13.0037016,2.99802933 Z M13.203,4.478 L13.2037016,8.33408838 L12.1904946,8.49375123 C7.36492925,9.25417187 4.21432285,13.0133822 4.2834125,18.2527477 L4.29,18.54 L4.31531062,18.4985066 C6.08922445,15.6417514 8.76940606,14.0667919 11.6217801,13.7526503 L11.9075643,13.7254381 L13.2037016,13.6212639 L13.203,17.724 L19.891,11.101 L13.203,4.478 Z" id="转发" fill-opacity="0.9" fill="#000000"></path>
        </g>
    </g>
</svg>