<?xml version="1.0" encoding="UTF-8"?>
<svg width="16px" height="16px" viewBox="0 0 16 16" version="1.1" xmlns="http://www.w3.org/2000/svg" xmlns:xlink="http://www.w3.org/1999/xlink">
    <title>企业认证-darkmode</title>
    <g id="企业认证-darkmode" stroke="none" stroke-width="1" fill="none" fill-rule="evenodd">
        <g id="icon_filled_proof备份">
            <rect id="矩形" x="0" y="0" width="16" height="16"></rect>
            <rect id="矩形" fill="#FFFFFF" x="4.2" y="4" width="7.6" height="8"></rect>
            <path d="M10.9299148,1.82990883 L11.8788314,4.12082217 L14.1700912,5.0700852 C14.4195441,5.17341197 14.5380027,5.45939641 14.4346759,5.70884931 L13.4854622,7.99957207 L14.4346759,10.2911507 C14.5380027,10.5406036 14.4195441,10.826588 14.1700912,10.9299148 L11.8789571,11.8780184 L10.9299148,14.1700912 C10.826588,14.4195441 10.5406036,14.5380027 10.2911507,14.4346759 L7.9993362,13.48501 L5.70884931,14.4346759 C5.45939641,14.5380027 5.17341197,14.4195441 5.0700852,14.1700912 L4.12088991,11.8785049 L1.82990883,10.9299148 C1.58045593,10.826588 1.46199729,10.5406036 1.56532407,10.2911507 L2.51425909,7.999755 L1.56532407,5.70884931 C1.46199729,5.45939641 1.58045593,5.17341197 1.82990883,5.0700852 L4.12127438,4.12007691 L5.0700852,1.82990883 C5.17341197,1.58045593 5.45939641,1.46199729 5.70884931,1.56532407 L7.99915327,2.51380688 L10.2911507,1.56532407 C10.5406036,1.46199729 10.826588,1.58045593 10.9299148,1.82990883 Z M10.9485027,5.69333331 L7.21562487,9.42621107 L5.37169173,7.58227793 L4.66666667,8.287303 L6.90295073,10.5252046 L6.90295073,10.5252046 L6.9580304,10.5721755 C7.1316838,10.6971789 7.37524307,10.6816042 7.5314418,10.5253835 L7.5314418,10.5253835 L11.6568543,6.40168501 L10.9485027,5.69333331 Z" id="形状结合" fill="#1196FF"></path>
        </g>
    </g>
</svg>