<?xml version="1.0" encoding="UTF-8"?>
<svg width="24px" height="24px" viewBox="0 0 24 24" version="1.1" xmlns="http://www.w3.org/2000/svg" xmlns:xlink="http://www.w3.org/1999/xlink">
    <title>icon_outlined_umbrella</title>
    <g id="icon_outlined_umbrella" stroke="none" stroke-width="1" fill="none" fill-rule="evenodd">
        <g id="编组-4">
            <rect id="矩形" fill="#FFFFFF" opacity="0" x="0" y="0" width="24" height="24"></rect>
            <g id="icon_outlined_umbrella" transform="translate(2.000000, 2.500000)" fill="#000000" fill-rule="nonzero">
                <path d="M10,0 C10.2982338,0 10.5456468,0.21758961 10.592147,0.50267688 L10.6,0.6 L10.6010412,1.01776486 C15.8440508,1.32857686 20,5.67895146 20,11 L19.9967895,11.2559004 C19.046151,10.470693 17.8280436,10 16.5,10 C15.2225748,10 14.0468652,10.4354959 13.1139221,11.1657815 C12.3840644,10.6635854 11.5269237,10.333047 10.6007681,10.2324341 L10.6,17.4865723 C10.6,18.8672841 9.5237614,19.996627 8.1644281,20.0814571 L8,20.0865723 L7.7878418,20.0865723 C6.40712992,20.0865723 5.27778704,19.0103337 5.19295698,17.6510004 L5.1878418,17.4865723 L5.1878418,17.241272 C5.1878418,16.9099011 5.45647095,16.641272 5.7878418,16.641272 C6.08607556,16.641272 6.33348855,16.8588616 6.37998881,17.1439489 L6.3878418,17.241272 L6.3878418,17.4865723 C6.3878418,18.2142886 6.94307067,18.8123244 7.65301245,18.8801635 L7.7878418,18.8865723 L8,18.8865723 C8.7277164,18.8865723 9.3257521,18.3313434 9.3935912,17.6214016 L9.4,17.4865723 L9.4002423,10.2323266 C8.4737184,10.3328179 7.61631972,10.6634626 6.88676022,11.1661188 C5.95313483,10.4354959 4.77742517,10 3.5,10 C2.17152786,10 0.95306294,10.4709968 0.00248315,11.2551126 L0,11 C0,5.6786123 4.15647897,1.32802229 9.3999614,1.01770547 L9.4,0.6 C9.4,0.26862915 9.6686292,0 10,0 Z M10,2.2 C5.83419503,2.2 2.34446389,5.09461615 1.43237848,8.9748856 L1.396,9.138 L1.49719998,9.1047784 C2.04549582,8.9332948 2.61887827,8.8318643 3.20558861,8.8063838 L3.5,8.8 C4.61133984,8.8 5.68292745,9.0721377 6.63654847,9.5781472 L6.931,9.744 L7.00359486,9.7062534 C7.83068278,9.2917402 8.740587,9.0512855 9.6842592,9.0073397 L10,9 C11.055876,9 12.0768806,9.2455326 12.9961151,9.7058039 L13.069,9.744 L13.1066215,9.7217953 C14.0378755,9.1736924 15.0944969,8.8558807 16.1979547,8.8067184 L16.5,8.8 C17.1894437,8.8 17.8633175,8.9047557 18.5029815,9.1049562 L18.601,9.138 L18.5675857,8.9822407 C17.6745371,5.17560833 14.3100916,2.32104 10.2594653,2.20375184 L10,2.2 Z" id="形状"></path>
            </g>
        </g>
    </g>
</svg>