<?xml version="1.0" encoding="UTF-8"?>
<svg width="18px" height="18px" viewBox="0 0 18 18" version="1.1" xmlns="http://www.w3.org/2000/svg" xmlns:xlink="http://www.w3.org/1999/xlink">
    <title>0.图标/面型/icons_filled_ feedbackerror</title>
    <g id="页面-1" stroke="none" stroke-width="1" fill="none" fill-rule="evenodd" fill-opacity="0.9">
        <g id="iPhone-XS-Max-Copy-4备份-14" transform="translate(-263.000000, -335.000000)" fill="#000000">
            <g id="编组" transform="translate(262.000000, 334.000000)">
                <g id="Group-19" transform="translate(1.666667, 1.666667)">
                    <path d="M8.33333333,0 C12.9357062,0 16.6666667,3.73096042 16.6666667,8.33333333 C16.6666667,12.9357062 12.9357062,16.6666667 8.33333333,16.6666667 C3.73096042,16.6666667 0,12.9357062 0,8.33333333 C0,3.73096042 3.73096042,0 8.33333333,0 Z M8.33333333,9.16666667 C7.14541599,9.16666667 5.98804388,9.66268329 4.87434052,10.6172862 L4.87434052,10.6172862 L4.24162669,11.1596123 L5.32627898,12.42504 L5.95899281,11.8827138 L6.13634514,11.735851 C6.90201696,11.1241829 7.63084388,10.8333333 8.33333333,10.8333333 C9.08986044,10.8333333 9.87693277,11.17065 10.7076739,11.8827138 L10.7076739,11.8827138 L11.3403877,12.42504 L12.42504,11.1596123 L11.7923261,10.6172862 L11.5829982,10.4436813 C10.533832,9.60261878 9.44700584,9.16666667 8.33333333,9.16666667 Z M5.41666667,4.58333333 C4.72631073,4.58333333 4.16666667,5.1429774 4.16666667,5.83333333 C4.16666667,6.52368927 4.72631073,7.08333333 5.41666667,7.08333333 C6.1070226,7.08333333 6.66666667,6.52368927 6.66666667,5.83333333 C6.66666667,5.1429774 6.1070226,4.58333333 5.41666667,4.58333333 Z M11.25,4.58333333 C10.5596441,4.58333333 10,5.1429774 10,5.83333333 C10,6.52368927 10.5596441,7.08333333 11.25,7.08333333 C11.9403559,7.08333333 12.5,6.52368927 12.5,5.83333333 C12.5,5.1429774 11.9403559,4.58333333 11.25,4.58333333 Z" id="形状结合"></path>
                </g>
            </g>
        </g>
    </g>
</svg>