<?xml version="1.0" encoding="utf-8"?>	<svg height="124px" version="1.1" viewBox="0 0 124 124" width="124px" xmlns="http://www.w3.org/2000/svg" xmlns:xlink="http://www.w3.org/1999/xlink">		
    		<!-- Generator: Sketch 53.2 (72643) - https://sketchapp.com -->		
    		<title>画板</title>		
    		<desc>Created with Sketch.</desc>		
    		<g fill="none" fill-rule="evenodd" id="画板" stroke="none" stroke-width="1">			
        			<g fill="#F2F2F2" id="分组-4">				
            				<rect height="124" id="Rectangle-14" rx="62" width="124" x="0" y="0"/>				
        			</g>			
        			<path d="M31,88.0588731 L31,85.841825 C31,83.6229881 32.6133899,81.036949 34.6082917,80.063459 L52.9408015,71.1173971 C55.5995827,69.8199413 56.2178029,66.9462646 54.2978228,64.6706375 L53.1269067,63.2828271 C50.7444928,60.4591074 48.8131648,55.1838563 48.8131648,51.4910061 L48.8131648,45.9536699 C48.8131648,38.7995556 54.6278876,33 61.7681938,33 C68.9230587,33 74.7232227,38.8070277 74.7232227,45.9557009 L74.7232227,51.4939052 C74.7232227,55.1832068 72.7829882,60.4739254 70.4094804,63.2874749 L69.2385642,64.6754757 C67.3292449,66.9387774 67.9256792,69.8194801 70.5955853,71.1218257 L88.9280957,80.0641873 C90.9209003,81.0362516 92.5363876,83.6061329 92.5363876,85.841825 L92.5363876,88.0588731 C92.5363876,89.8475893 91.0863466,91.2976303 89.2976303,91.2976303 L34.2387572,91.2976303 C32.450041,91.2976303 31,89.8475893 31,88.0588731 Z" fill="#CCCCCC" fill-rule="nonzero" id="Path-67"/>			
    		</g>		
	</svg>