<?xml version="1.0" encoding="UTF-8"?>
<svg width="32px" height="32px" viewBox="0 0 32 32" version="1.1" xmlns="http://www.w3.org/2000/svg" xmlns:xlink="http://www.w3.org/1999/xlink">
    <title>复制链接</title>
    <g id="页面-1" stroke="none" stroke-width="1" fill="none" fill-rule="evenodd">
        <g id="画板" transform="translate(-77.000000, -93.000000)" fill="#000000">
            <g id="复制链接" transform="translate(77.000000, 93.000000)">
                <path d="M13.8666667,4 L5.86666667,26.6666667 L4,26.6666667 L12,4 L13.8666667,4 Z M12.8,24 C13.5363797,24 14.1333333,24.5969537 14.1333333,25.3333333 C14.1333333,26.069713 13.5363797,26.6666667 12.8,26.6666667 C12.0636203,26.6666667 11.4666667,26.069713 11.4666667,25.3333333 C11.4666667,24.5969537 12.0636203,24 12.8,24 Z M19.7333333,24 C20.469713,24 21.0666667,24.5969537 21.0666667,25.3333333 C21.0666667,26.069713 20.469713,26.6666667 19.7333333,26.6666667 C18.9969537,26.6666667 18.4,26.069713 18.4,25.3333333 C18.4,24.5969537 18.9969537,24 19.7333333,24 Z M26.6666667,24 C27.4030463,24 28,24.5969537 28,25.3333333 C28,26.069713 27.4030463,26.6666667 26.6666667,26.6666667 C25.930287,26.6666667 25.3333333,26.069713 25.3333333,25.3333333 C25.3333333,24.5969537 25.930287,24 26.6666667,24 Z" id="形状结合"></path>
            </g>
        </g>
    </g>
</svg>