<?xml version="1.0" encoding="UTF-8"?>
<svg width="24px" height="24px" viewBox="0 0 24 24" version="1.1" xmlns="http://www.w3.org/2000/svg" xmlns:xlink="http://www.w3.org/1999/xlink">
    <!-- Generator: Sketch 63.1 (92452) - https://sketch.com -->
    <title>3.Icons/Outlined/volume_off备份</title>
    <desc>Created with Sketch.</desc>
    <defs>
        <filter x="-50.0%" y="-55.3%" width="200.0%" height="210.5%" filterUnits="objectBoundingBox" id="filter-1">
            <feOffset dx="0" dy="1" in="SourceAlpha" result="shadowOffsetOuter1"></feOffset>
            <feGaussianBlur stdDeviation="2" in="shadowOffsetOuter1" result="shadowBlurOuter1"></feGaussianBlur>
            <feColorMatrix values="0 0 0 0 0   0 0 0 0 0   0 0 0 0 0  0 0 0 0.2 0" type="matrix" in="shadowBlurOuter1" result="shadowMatrixOuter1"></feColorMatrix>
            <feMerge>
                <feMergeNode in="shadowMatrixOuter1"></feMergeNode>
                <feMergeNode in="SourceGraphic"></feMergeNode>
            </feMerge>
        </filter>
    </defs>
    <g id="声音按钮" stroke="none" stroke-width="1" fill="none" fill-rule="evenodd">
        <g id="位置标注" transform="translate(-206.000000, -139.000000)" fill="#FFFFFF">
            <g id="3.Icons/Outlined/volume_off备份" filter="url(#filter-1)" transform="translate(208.000000, 142.000000)">
                <path d="M3.12132034,-7.28306304e-14 L7.06,3.939 L9.3,1.7 C9.7,1.3 10.3,1.3 10.7,1.7 C10.8714286,1.87142857 10.9693878,2.04285714 10.9938776,2.27725948 L11,2.4 L10.999,7.878 L13.8788947,10.7565417 C14.1521402,10.2159763 14.3,9.60798817 14.3,9 C14.3,8 13.9,7 13.2,6.3 L13.1,6.2 L14.2,5.1 L14.3,5.2 C15.3,6.2 15.9,7.6 15.9,9 C15.9,10.01875 15.5822903,11.0375 15.0239345,11.902123 L15.9421945,12.8212132 C16.730194,11.7030025 17.1,10.4131356 17.1,9 C17.1,7.2 16.4,5.6 15.2,4.3 L15.1,4.2 L16.2,3.1 L16.3,3.2 C17.8,4.7 18.7,6.8 18.7,9 C18.7,10.8200769 18.1524496,12.5032662 17.0573488,13.9363198 L20.0918831,16.9705627 L19.0312229,18.0312229 L2.06066017,1.06066017 L3.12132034,-7.28306304e-14 Z M4.378,5.5 L10.999,12.12 L11,15.6 C11,16.2 10.6,16.6 10,16.6 C9.74285714,16.6 9.55918367,16.5265306 9.38600583,16.3795918 L9.3,16.3 L5.5,12.5 L1,12.5 C0.442857143,12.5 0.0581632653,12.155102 0.00604956268,11.6254373 L-1.77635684e-15,11.5 L-1.77635684e-15,6.5 C-1.77635684e-15,5.94285714 0.344897959,5.55816327 0.874562682,5.50604956 L1,5.5 L4.378,5.5 Z" id="Combined-Shape"></path>
            </g>
        </g>
    </g>
</svg>