<?xml version="1.0" encoding="UTF-8"?>
<svg width="24px" height="24px" viewBox="0 0 24 24" version="1.1" xmlns="http://www.w3.org/2000/svg" xmlns:xlink="http://www.w3.org/1999/xlink">
    <title>icons_outlined_share</title>
    <g id="icons_outlined_share" stroke="none" stroke-width="1" fill="none" fill-rule="evenodd">
        <g id="编组">
            <rect id="矩形" fill="#D8D8D8" opacity="0" x="0" y="0" width="24" height="24"></rect>
            <path d="M14.3801429,3.40848331 C13.8290107,3.46820479 13.4,3.93501631 13.4,4.50202866 L13.399,7.08 L13.3417056,7.08572154 C6.78532184,7.77736398 3.16092446,13.2556184 3.78442243,20.2911246 C3.78208008,20.3313087 3.7876937,20.3986156 3.81653858,20.4880866 C3.95515957,20.9180611 4.50382676,21.0704342 4.83659471,20.7254713 C4.91450971,20.6447009 4.94687326,20.5921197 4.99608572,20.4729261 L5.36299215,19.5081528 C5.77393233,18.4716992 6.25759072,17.5118699 6.88912004,16.5985322 L7.06711248,16.3479682 C8.62841434,14.2090299 10.6777365,12.9222401 13.3555539,12.8087285 L13.399,12.807 L13.4,16.0878735 C13.4,16.3795532 13.5158925,16.6593425 13.7221825,16.8656326 C14.1517593,17.2952093 14.8482407,17.2952093 15.2778175,16.8656326 L20.7171573,11.4262927 C21.3419962,10.8014539 21.3419962,9.78838989 20.7171573,9.16355103 L15.2778175,3.7242112 C15.0715274,3.51792118 14.7917381,3.40202866 14.5,3.40202866 L14.3801429,3.40848331 Z M14.599,4.742 L19.8686291,10.0120792 L19.9198855,10.0748282 C20.0223981,10.2300889 20.0053127,10.4410811 19.8686291,10.5777646 L14.599,15.847 L14.5995648,11.6183996 L14.0145111,11.6038767 C10.4733153,11.5159727 7.81497112,13.1495884 5.90209439,15.9160512 L5.65103673,16.2921598 C5.48866268,16.544238 5.33605969,16.799091 5.19188149,17.0572999 L4.974,17.462 L4.97566386,17.4448858 C5.44736202,12.210128 8.72685602,8.53964569 14.0341338,8.23300394 L14.5994391,8.20034197 L14.599,4.742 Z" id="形状结合" fill="#000000" fill-rule="nonzero"></path>
        </g>
    </g>
</svg>