<?xml version="1.0" encoding="UTF-8"?>
<svg width="24px" height="24px" viewBox="0 0 24 24" version="1.1" xmlns="http://www.w3.org/2000/svg" xmlns:xlink="http://www.w3.org/1999/xlink">
    <title>icons_filled_WeChatSearchEmblem</title>
    <g id="icons_filled_WeChatSearchEmblem" stroke="none" stroke-width="1" fill="none" fill-rule="evenodd">
        <g id="Group" transform="translate(2.000000, 2.000000)" fill="#FA5151">
            <path d="M10.935813,2.1313989 C11.1110808,1.765284 11.1247128,1.36878935 10.9739825,1.01435897 C10.8232522,0.659928595 10.5272444,0.394300552 10.1408763,0.266549821 L9.81526777,0.159052256 C9.66609542,0.109587796 9.51341772,0.0842713405 9.36190847,0.0842713405 C8.7235443,0.0842713405 8.18761441,0.534514768 8.0594742,1.17950016 L7.37865628,4.60228497 C7.21468354,5.42526452 7.458111,6.19293736 7.93289192,6.35028887 C7.9940409,6.37054203 8.0594742,6.38066861 8.1272444,6.38066861 C8.58177215,6.38066861 9.11575463,5.92847777 9.42617332,5.28076599 L10.935813,2.1313989 Z" id="Fill-1"></path>
            <path d="M5.54909445,7.88236287 C5.59622201,7.38693931 4.9952483,6.8416618 4.18044791,6.64185654 L1.67372931,6.02491399 C1.55844206,5.99648166 1.44081792,5.98168127 1.32630964,5.98168127 C0.643933788,5.98168127 0.1006037,6.48839987 0.0336124635,7.1859656 L0.00011684518,7.53961701 C-0.00338851022,7.96571243 0.139552093,8.34662772 0.403232717,8.61225576 C0.640817916,8.85178838 0.955131451,8.97876014 1.31228822,8.97876014 C1.33838364,8.97876014 1.36447907,8.97798117 1.39096397,8.97642324 L3.97012658,8.84283025 C4.80751704,8.79959753 5.50118793,8.37778643 5.54909445,7.88236287" id="Fill-3"></path>
            <path d="M6.54617332,10.5012139 C6.07489776,10.3446414 5.42601753,10.8346121 5.09417722,11.5933268 L2.7089776,17.0449335 C2.5465628,17.4157222 2.54461538,17.8165011 2.70313535,18.1736579 C2.86204479,18.5312042 3.16194742,18.7991691 3.54753651,18.9276988 L3.8727556,19.0359753 L3.90508277,19.0425966 C3.95805258,19.0472704 4.01413827,19.0499968 4.07256086,19.0499968 C4.75065239,19.0499968 5.50936709,18.7356832 5.67606621,18.0334437 L7.04977605,12.2449335 C7.24412853,11.4258488 7.02290166,10.6597339 6.54617332,10.5012139" id="Fill-5"></path>
            <path d="M11.1940409,11.4012723 C10.8041675,10.985693 10.3099124,10.7274651 9.90407011,10.7274651 C9.73191821,10.7274651 9.58040896,10.7761506 9.46667965,10.8680688 C9.07485881,11.1847192 9.14652386,11.9742032 9.62987342,12.6655372 L14.2997858,19.3440182 C14.5724245,19.7335021 14.9954041,19.9574554 15.4600584,19.9574554 C15.7872249,19.9574554 16.0980331,19.8456735 16.3597663,19.6345732 L16.6261733,19.4187991 C16.9412658,19.1644661 17.129776,18.8073093 17.1570399,18.4147095 C17.1839143,18.0217202 17.0464265,17.6423629 16.7691139,17.347134 L11.1940409,11.4012723 Z" id="Fill-7"></path>
            <path d="M19.845258,7.19095099 C19.7981305,6.36797144 19.0881013,5.76621876 18.2456475,5.88773775 L11.3319182,6.8949432 C10.4980331,7.01685167 9.86629017,7.50448556 9.89472249,8.0053619 C9.92315482,8.50740669 10.6066991,8.91091204 11.4514898,8.92376501 L18.2803116,9.01295683 L18.3044596,9.01295683 C18.7484713,9.01295683 19.1932619,8.82249919 19.4947225,8.50351185 C19.7529503,8.23009413 19.8842064,7.88540084 19.8643427,7.53291788 L19.845258,7.19095099 Z" id="Fill-10"></path>
        </g>
    </g>
</svg>