<?xml version="1.0" encoding="UTF-8"?>
<svg width="20px" height="20px" viewBox="0 0 20 20" version="1.1" xmlns="http://www.w3.org/2000/svg" xmlns:xlink="http://www.w3.org/1999/xlink">
    <title>编组 17@3x</title>
    <g id="页面-1" stroke="none" stroke-width="1" fill="none" fill-rule="evenodd">
        <g id="编组-17">
            <rect id="矩形" fill="#D8D8D8" opacity="0" x="0" y="0" width="20" height="20"></rect>
            <path d="M9.83333333,18.6666667 C5.23096042,18.6666667 1.5,14.9357062 1.5,10.3333333 C1.5,5.73096042 5.23096042,2 9.83333333,2 C14.4357062,2 18.1666667,5.73096042 18.1666667,10.3333333 C18.1666667,14.9357062 14.4357062,18.6666667 9.83333333,18.6666667 Z M13.5148438,12.3640625 L13.5148438,7.67421875 C13.5148438,7.46328125 13.45,7.2921875 13.3203125,7.1609375 C13.190625,7.0296875 13.0179688,6.9640625 12.8023438,6.9640625 L8.11015625,6.9640625 C7.91015625,6.9640625 7.74375,7.0296875 7.6109375,7.1609375 C7.478125,7.2921875 7.41171875,7.4484375 7.41171875,7.6296875 C7.41171875,7.809375 7.47929688,7.96171875 7.61445313,8.08671875 C7.74960938,8.21171875 7.9125,8.27421875 8.103125,8.27421875 L11.384375,8.27421875 L6.42265625,13.0929688 C6.27109375,13.2476563 6.1953125,13.4148438 6.1953125,13.5945313 C6.1953125,13.7117188 6.22773438,13.8230469 6.29257813,13.9285156 C6.35742188,14.0339844 6.44179688,14.1191406 6.54570313,14.1839844 C6.64960938,14.2488281 6.76171875,14.28125 6.88203125,14.28125 C7.06328125,14.28125 7.23046875,14.2054688 7.38359375,14.0539063 L12.2023438,9.08984375 L12.2023438,12.3710938 C12.2023438,12.5632813 12.2640625,12.7269531 12.3875,12.8621094 C12.5109375,12.9972656 12.6640625,13.0648438 12.846875,13.0648438 C13.0296875,13.0648438 13.1867188,12.9972656 13.3179688,12.8621094 C13.4492188,12.7269531 13.5148438,12.5609375 13.5148438,12.3640625 Z" id="形状结合" fill="#FFFFFF"></path>
        </g>
    </g>
</svg>