<?xml version="1.0" encoding="UTF-8"?>
<svg width="11px" height="12px" viewBox="0 0 11 12" version="1.1" xmlns="http://www.w3.org/2000/svg" xmlns:xlink="http://www.w3.org/1999/xlink">
    <!-- Generator: Sketch 57.1 (83088) - https://sketch.com -->
    <title>编组</title>
    <desc>Created with Sketch.</desc>
    <g id="v1.2" stroke="none" stroke-width="1" fill="none" fill-rule="evenodd">
        <g id="正在定位" transform="translate(-286.000000, -423.000000)" fill="#FFFFFF">
            <g id="Group" transform="translate(279.000000, 417.000000)">
                <g id="编组" transform="translate(6.000000, 4.000000)">
                    <rect id="矩形" opacity="0" x="0" y="1" width="14" height="14"></rect>
                    <path d="M8.32318884,1.45476509 L11.9876494,11.7624496 C12.0511138,11.940967 11.9578448,12.137132 11.7793273,12.2005963 C11.6734456,12.2382381 11.5558416,12.2216365 11.4645172,12.1561561 L7.99995437,9.67203554 L7.99995437,9.67203554 L4.53539158,12.1561561 C4.38141777,12.2665566 4.16710004,12.2312335 4.05669953,12.0772597 C3.99121917,11.9859353 3.97461757,11.8683312 4.01225931,11.7624496 L7.6767199,1.45476509 C7.74018423,1.27624763 7.93634923,1.18297863 8.11486669,1.24644295 C8.21210792,1.28101295 8.28861884,1.35752387 8.32318884,1.45476509 Z" id="Combined-Shape" transform="translate(8.000000, 6.717514) rotate(45.000000) translate(-8.000000, -6.717514) "></path>
                </g>
            </g>
        </g>
    </g>
</svg>