<?xml version="1.0" encoding="UTF-8"?>
<svg width="24px" height="24px" viewBox="0 0 24 24" version="1.1" xmlns="http://www.w3.org/2000/svg" xmlns:xlink="http://www.w3.org/1999/xlink">
    <title>Icons_filld_AddSticker</title>
    <g id="Icons_filld_AddSticker" stroke="none" stroke-width="1" fill="none" fill-rule="evenodd" fill-opacity="0.9">
        <path d="M19.3846154,12.4615385 C21.9336219,12.4615385 24,14.5279165 24,17.0769231 C24,19.6259296 21.9336219,21.6923077 19.3846154,21.6923077 C16.8356088,21.6923077 14.7692308,19.6259296 14.7692308,17.0769231 C14.7692308,14.5279165 16.8356088,12.4615385 19.3846154,12.4615385 Z M9.23076923,2.30769231 C14.3287823,2.30769231 18.4615385,6.44044846 18.4615385,11.5384615 L18.4607937,11.6151636 C15.8417324,12.0549271 13.8461538,14.3328789 13.8461538,17.0769231 C13.8461538,17.8516586 14.0052258,18.5892409 14.2924901,19.2587904 C12.8390247,20.2137688 11.0997645,20.7692308 9.23076923,20.7692308 C4.13275616,20.7692308 0,16.6364746 0,11.5384615 C0,6.44044846 4.13275616,2.30769231 9.23076923,2.30769231 Z M19.9153846,14.3076923 L18.8076923,14.3076923 L18.8067692,16.5 L16.6153846,16.5 L16.6153846,17.6076923 L18.8067692,17.6076923 L18.8076923,19.8461538 L19.9153846,19.8461538 L19.9144615,17.6076923 L22.1538462,17.6076923 L22.1538462,16.5 L19.9144615,16.5 L19.9153846,14.3076923 Z M14.2869955,12.4615385 L4.17454293,12.4615385 C4.40772544,15.0491539 6.5824419,17.0769231 9.23076923,17.0769231 C11.8790966,17.0769231 14.053813,15.0491539 14.2869955,12.4615385 Z M6,7.38461538 C5.23529804,7.38461538 4.61538462,8.00452881 4.61538462,8.76923077 C4.61538462,9.53393273 5.23529804,10.1538462 6,10.1538462 C6.76470196,10.1538462 7.38461538,9.53393273 7.38461538,8.76923077 C7.38461538,8.00452881 6.76470196,7.38461538 6,7.38461538 Z M12.4615385,7.38461538 C11.6968365,7.38461538 11.0769231,8.00452881 11.0769231,8.76923077 C11.0769231,9.53393273 11.6968365,10.1538462 12.4615385,10.1538462 C13.2262404,10.1538462 13.8461538,9.53393273 13.8461538,8.76923077 C13.8461538,8.00452881 13.2262404,7.38461538 12.4615385,7.38461538 Z" id="形状" fill="#000000"></path>
    </g>
</svg>