<?xml version="1.0" encoding="UTF-8"?>
<svg width="24px" height="24px" viewBox="0 0 24 24" version="1.1" xmlns="http://www.w3.org/2000/svg" xmlns:xlink="http://www.w3.org/1999/xlink">
    <title>Icons_filled_quote</title>
    <g id="Icons_filled_quote" stroke="none" stroke-width="1" fill="none" fill-rule="evenodd">
        <g id="编组备份-4" fill="#FFFFFF">
            <path d="M12,2 C17.5228475,2 22,6.4771525 22,12 C22,17.5228475 17.5228475,22 12,22 C6.4771525,22 2,17.5228475 2,12 C2,6.4771525 6.4771525,2 12,2 Z M10.2296707,8 C8.38452744,8.94032145 7.47481395,10.4620545 7.50053023,12.5651992 L7.50053023,12.5651992 L7.50053023,16 L10.9353311,16 L10.9353311,12.5651992 L9.21766554,12.5651992 C9.21766554,11.0879804 9.79022071,10.0137317 10.9353311,9.34245283 C10.4648908,8.44748428 10.2296707,8 10.2296707,8 Z M15.7896707,8 C13.9445274,8.94032145 13.034814,10.4620545 13.0605302,12.5651992 L13.0605302,12.5651992 L13.0605302,16 L16.4953311,16 L16.4953311,12.5651992 L14.7776655,12.5651992 C14.7776655,11.0879804 15.3502207,10.0137317 16.4953311,9.34245283 C16.0248908,8.44748428 15.7896707,8 15.7896707,8 Z" id="形状结合"></path>
        </g>
    </g>
</svg>