<?xml version="1.0" encoding="UTF-8"?>
<svg width="120px" height="120px" viewBox="0 0 120 120" version="1.1" xmlns="http://www.w3.org/2000/svg" xmlns:xlink="http://www.w3.org/1999/xlink">
    <title>画板</title>
    <g id="画板" stroke="none" stroke-width="1" fill="none" fill-rule="evenodd">
        <path d="M67.9273832,17 C68.9415555,17 69.7951873,17.7590917 69.9136844,18.7663175 L70.7372138,25.7663175 C70.7464723,25.8450141 70.7510283,25.9231803 70.7511041,26.0005347 L83.8663652,26 C86.3281078,26 88.5400722,27.5037083 89.4456506,29.7928356 L99.8547217,56.1050574 C105.795223,58.4419255 110,64.2299236 110,71 L110,91 C110,93.209139 108.209139,95 106,95 L97.8740452,95.0002435 C97.9562692,95.3197901 98,95.6547881 98,96 L98,100 C98,102.209139 96.209139,104 94,104 L90,104 C87.790861,104 86,102.209139 86,100 L86,96 C86,95.6547881 86.0437308,95.3197901 86.1259548,95.0002435 L33.8740452,95.0002435 C33.9562692,95.3197901 34,95.6547881 34,96 L34,100 C34,102.209139 32.209139,104 30,104 L26,104 C23.790861,104 22,102.209139 22,100 L22,96 C22,95.6547881 22.0437308,95.3197901 22.1259548,95.0002435 L14,95 C11.790861,95 10,93.209139 10,91 L10,71 C10,64.2299236 14.2047767,58.4419255 20.1452783,56.1050574 L30.5543494,29.7928356 C31.4599278,27.5037083 33.6718922,26 36.1336348,26 L49.2490874,26 C49.2490874,25.9219052 49.2536615,25.8438774 49.2627862,25.7663175 L50.0863156,18.7663175 C50.2048127,17.7590917 51.0584445,17 52.0726168,17 L67.9273832,17 Z M32,69 C27.581722,69 24,72.581722 24,77 C24,81.418278 27.581722,85 32,85 C36.418278,85 40,81.418278 40,77 C40,72.581722 36.418278,69 32,69 Z M88,69 C83.581722,69 80,72.581722 80,77 C80,81.418278 83.581722,85 88,85 C92.418278,85 96,81.418278 96,77 C96,72.581722 92.418278,69 88,69 Z M75.0888411,36 L45.2348353,36 C43.4721662,36 41.9172603,37.1538274 41.406467,38.840864 L35.7810299,57.420432 C35.7241295,57.6083613 35.695214,57.8036455 35.695214,58 C35.695214,59.1045695 36.5906445,60 37.695214,60 L82.3440901,60 C82.531003,60 82.7169933,59.9737983 82.8966316,59.9221597 C83.9582111,59.6169994 84.57141,58.509038 84.2662498,57.4474585 L78.9331605,38.894917 C78.4404229,37.1808009 76.8723725,36 75.0888411,36 Z" id="形状结合" fill="#07C160" fill-rule="nonzero"></path>
    </g>
</svg>