<?xml version="1.0" encoding="UTF-8"?>
<svg width="32px" height="32px" viewBox="0 0 32 32" version="1.1" xmlns="http://www.w3.org/2000/svg" xmlns:xlink="http://www.w3.org/1999/xlink">
    <title>Handoff_icon</title>
    <g id="v1.4-补充-接力功能" stroke="none" stroke-width="1" fill="none" fill-rule="evenodd">
        <g id="接力功能" transform="translate(-12.000000, -12.000000)" fill="#10AEFF">
            <g id="Handoff_icon" transform="translate(12.000000, 12.000000)">
                <path d="M20.03616,23.6 L21.6096747,27.9266055 C21.7606663,28.3418324 21.5464613,28.8008432 21.1312345,28.9518347 C21.0436062,28.9836996 20.951082,29 20.85784,29 L11.14216,29 C10.7003322,29 10.34216,28.6418278 10.34216,28.2 C10.34216,28.106758 10.3584604,28.0142338 10.3903253,27.9266055 L11.96316,23.6 L20.03616,23.6 Z" id="形状结合"></path>
                <path d="M28.1,3 C28.8731986,3 29.5,3.62680135 29.5,4.4 L29.5,20.6 C29.5,21.3731986 28.8731986,22 28.1,22 L3.9,22 C3.12680135,22 2.5,21.3731986 2.5,20.6 L2.5,4.4 C2.5,3.62680135 3.12680135,3 3.9,3 L28.1,3 Z M16.4112562,7.54884605 C16.1699714,7.32171551 15.7902458,7.33318978 15.5631153,7.57447456 L15.5631153,7.57447456 L11,12.4219524 L12.25,13.7498495 L15.117,10.7047291 L15.1161165,17.6142709 L16.8838835,17.6142709 L16.884,10.7037291 L19.75,13.7498495 L21,12.4219524 L17.25,8.43826125 L16.4368847,7.57447456 C16.4286019,7.56567559 16.4200552,7.55712885 16.4112562,7.54884605 Z" id="形状结合"></path>
            </g>
        </g>
    </g>
</svg>