<?xml version="1.0" encoding="UTF-8"?>
<svg width="48px" height="48px" viewBox="0 0 48 48" version="1.1" xmlns="http://www.w3.org/2000/svg" xmlns:xlink="http://www.w3.org/1999/xlink">
    <!-- Generator: Sketch 61 (89581) - https://sketch.com -->
    <title>Miniprogram_Icon_Default</title>
    <desc>Created with Sketch.</desc>
    <g id="Miniprogram_Icon_Default" stroke="none" stroke-width="1" fill="none" fill-rule="evenodd">
        <g>
            <circle id="Oval" fill="#F1F1F1" cx="24" cy="24" r="24"></circle>
            <path d="M29.0042951,24.9907511 L28.7683706,24.9945687 C28.0550163,24.9945687 27.639927,24.4712722 27.9080929,23.8679595 C28.0917325,23.4394672 28.5060412,23.1085462 28.9953388,22.9998587 C30.3044617,22.6838635 31.1939297,21.6607165 31.1939297,20.471246 C31.1939297,19.0291724 29.8171187,17.8539936 28.0974441,17.8539936 C26.3777694,17.8539936 25.0009585,19.0291724 25.0009585,20.471246 L25.0009585,27.6597444 C25.0009585,30.1916631 22.7378977,32.2309904 19.9504792,32.2309904 C17.1630608,32.2309904 14.9,30.1916631 14.9,27.6597444 C14.9,25.4396643 16.6523428,23.5446627 19.0399361,23.184345 L19.2316294,23.184345 C19.7716932,23.184345 20.1607029,23.5076457 20.1607025,23.9693574 C20.1609328,24.0484712 20.1590111,24.0850296 20.1512001,24.131896 C20.1406704,24.1950739 20.1201676,24.2555438 20.0919071,24.3109542 C19.9197842,24.7125742 19.4797712,25.0602868 19.0046612,25.1790551 C17.7049967,25.4927672 16.8060703,26.5096672 16.8060703,27.6597444 C16.8060703,29.101818 18.1828813,30.2769968 19.9025559,30.2769968 C21.6222306,30.2769968 22.9990415,29.101818 22.9990415,27.6597444 L22.9990415,20.471246 C22.9990415,17.9393274 25.2621023,15.9 28.0495208,15.9 C30.8369392,15.9 33.1,17.9393274 33.1,20.471246 C33.1,22.7031126 31.388876,24.5760414 29.0042951,24.9907511 Z" id="图标颜色" fill="#000000" opacity="0.200000003"></path>
        </g>
    </g>
</svg>