<?xml version="1.0" encoding="UTF-8"?>
<svg width="286px" height="136px" viewBox="0 0 286 136" version="1.1" xmlns="http://www.w3.org/2000/svg" xmlns:xlink="http://www.w3.org/1999/xlink">
    <title>示意备份</title>
    <defs>
        <linearGradient x1="50%" y1="59.5526288%" x2="50%" y2="100%" id="linearGradient-1">
            <stop stop-color="#000000" stop-opacity="0.0373688811" offset="0%"></stop>
            <stop stop-color="#000000" stop-opacity="0" offset="100%"></stop>
        </linearGradient>
        <linearGradient x1="50%" y1="134.754641%" x2="50%" y2="69.3373864%" id="linearGradient-2">
            <stop stop-color="#FCFCFC" offset="0%"></stop>
            <stop stop-color="#F4F4F4" offset="100%"></stop>
        </linearGradient>
    </defs>
    <g id="校园电话·方案修改" stroke="none" stroke-width="1" fill="none" fill-rule="evenodd">
        <g id="示意图底色" transform="translate(-25.000000, -702.000000)">
            <g id="示意备份" transform="translate(25.000000, 702.000000)">
                <path d="M30.7666224,-1.24300837e-15 L255.233378,1.24300837e-15 C265.931602,-7.22223659e-16 269.811037,1.11390733 273.722148,3.20559245 C277.63326,5.29727756 280.702722,8.36674045 282.794408,12.2778516 C284.886093,16.1889627 286,20.0683975 286,30.7666224 L286,136 L286,136 L0,136 L8.28672246e-16,30.7666224 C-4.81482439e-16,20.0683975 1.11390733,16.1889627 3.20559245,12.2778516 C5.29727756,8.36674045 8.36674045,5.29727756 12.2778516,3.20559245 C16.1889627,1.11390733 20.0683975,7.22223659e-16 30.7666224,-1.24300837e-15 Z" id="蒙版" fill="url(#linearGradient-1)"></path>
                <path d="M24,6 L262,6 C271.941125,6 280,14.0588745 280,24 L280,136 L280,136 L6,136 L6,24 C6,14.0588745 14.0588745,6 24,6 Z" id="矩形" fill="#FFFFFF"></path>
                <g id="编组-12" transform="translate(12.000000, 41.000000)">
                    <rect id="矩形" fill="url(#linearGradient-2)" x="0" y="0" width="262" height="70" rx="4"></rect>
                    <rect id="矩形" fill="#000000" opacity="0.0630041788" x="16" y="22" width="43" height="14"></rect>
                    <rect id="矩形备份" fill="#000000" opacity="0.0630041788" x="16" y="40" width="58" height="8"></rect>
                    <g id="编组-2" transform="translate(178.000000, 23.000000)">
                        <circle id="椭圆形" fill="#FDC9C9" cx="12" cy="12" r="12"></circle>
                        <g id="编组" transform="translate(4.000000, 4.000000)" fill="#FFFFFF" opacity="0.800000012">
                            <g id="XMLID_19_" transform="translate(8.000000, 8.666667) rotate(135.000000) translate(-8.000000, -8.666667) translate(2.000000, 2.666667)">
                                <path d="M9.21248366,8.42159383 C9.08910218,8.38046272 9.03769323,8.40102828 8.92459354,8.46272494 C8.55444911,8.66838046 7.64965161,9.16195373 7.11499854,9.43958869 C6.98133527,9.51156812 6.83739022,9.55269923 6.67288158,9.55269923 C6.49809115,9.55269923 6.34386431,9.50128535 6.21020104,9.41902314 C5.45963038,8.97686375 4.75018689,8.46272494 4.14356129,7.84575835 C3.53693569,7.23907455 3.0228462,6.52956298 2.58072924,5.77892031 C2.49847492,5.64524422 2.44706597,5.48071979 2.44706597,5.31619537 C2.44706597,5.16195373 2.48819313,5.00771208 2.56016566,4.87403599 C2.83777398,4.32904884 3.33129989,3.42416452 3.53693569,3.06426735 C3.59862643,2.95115681 3.61919001,2.88946015 3.57806285,2.77634961 L2.70411072,0.452442159 C2.59101103,0.185089974 2.33396628,0.0102827763 2.02551259,0 C1.90213111,0 1.75818606,0.0514138817 1.72734069,0.0616966581 C0.719725286,0.431876607 0,1.38817481 0,2.51928021 C0,2.83804627 0.0822543184,3.13624679 0.0925361082,3.20822622 C0.586062019,5.36760925 1.68621353,7.29048843 3.19763663,8.80205656 C4.70905973,10.3136247 6.63175442,11.4138817 8.79093028,11.907455 C8.86290281,11.9280206 9.16107471,12 9.47981019,12 C10.6108071,12 11.5670135,11.2802057 11.937158,10.2724936 C11.9474397,10.2416452 12.0091305,10.0976864 11.9988487,9.97429306 C11.9782851,9.66580977 11.8034947,9.40874036 11.5361682,9.29562982 L9.21248366,8.42159383 Z" id="Combined-Shape"></path>
                            </g>
                        </g>
                    </g>
                    <g id="编组-4" transform="translate(222.000000, 23.000000)">
                        <circle id="椭圆形备份" fill="#A1E5C2" cx="12" cy="12" r="12"></circle>
                        <g id="编组" transform="translate(4.000000, 4.000000)" fill="#FFFFFF" opacity="0.800000012">
                            <g id="XMLID_19_" transform="translate(2.000000, 2.000000)">
                                <path d="M9.21248366,8.42159383 C9.08910218,8.38046272 9.03769323,8.40102828 8.92459354,8.46272494 C8.55444911,8.66838046 7.64965161,9.16195373 7.11499854,9.43958869 C6.98133527,9.51156812 6.83739022,9.55269923 6.67288158,9.55269923 C6.49809115,9.55269923 6.34386431,9.50128535 6.21020104,9.41902314 C5.45963038,8.97686375 4.75018689,8.46272494 4.14356129,7.84575835 C3.53693569,7.23907455 3.0228462,6.52956298 2.58072924,5.77892031 C2.49847492,5.64524422 2.44706597,5.48071979 2.44706597,5.31619537 C2.44706597,5.16195373 2.48819313,5.00771208 2.56016566,4.87403599 C2.83777398,4.32904884 3.33129989,3.42416452 3.53693569,3.06426735 C3.59862643,2.95115681 3.61919001,2.88946015 3.57806285,2.77634961 L2.70411072,0.452442159 C2.59101103,0.185089974 2.33396628,0.0102827763 2.02551259,0 C1.90213111,0 1.75818606,0.0514138817 1.72734069,0.0616966581 C0.719725286,0.431876607 0,1.38817481 0,2.51928021 C0,2.83804627 0.0822543184,3.13624679 0.0925361082,3.20822622 C0.586062019,5.36760925 1.68621353,7.29048843 3.19763663,8.80205656 C4.70905973,10.3136247 6.63175442,11.4138817 8.79093028,11.907455 C8.86290281,11.9280206 9.16107471,12 9.47981019,12 C10.6108071,12 11.5670135,11.2802057 11.937158,10.2724936 C11.9474397,10.2416452 12.0091305,10.0976864 11.9988487,9.97429306 C11.9782851,9.66580977 11.8034947,9.40874036 11.5361682,9.29562982 L9.21248366,8.42159383 Z" id="Combined-Shape"></path>
                            </g>
                        </g>
                    </g>
                </g>
            </g>
        </g>
    </g>
</svg>