<?xml version="1.0" encoding="UTF-8"?>
<svg width="286px" height="170px" viewBox="0 0 286 170" version="1.1" xmlns="http://www.w3.org/2000/svg" xmlns:xlink="http://www.w3.org/1999/xlink">
    <title>编组 26</title>
    <defs>
        <linearGradient x1="50%" y1="74.2207942%" x2="50%" y2="100%" id="linearGradient-1">
            <stop stop-color="#000000" stop-opacity="0.08" offset="0%"></stop>
            <stop stop-color="#000000" stop-opacity="0" offset="100%"></stop>
        </linearGradient>
    </defs>
    <g id="页面-1" stroke="none" stroke-width="1" fill="none" fill-rule="evenodd">
        <g id="强提醒_首次引导提示备份-13" transform="translate(-64.000000, -532.000000)">
            <g id="编组-37" transform="translate(0.000000, 343.000000)">
                <g id="编组-26" transform="translate(64.000000, 189.000000)">
                    <path d="M30.7666224,5.70659909e-16 L255.233378,3.05667665e-15 C265.931602,-1.77601716e-15 269.811037,1.11390733 273.722148,3.20559245 C277.63326,5.29727756 280.702722,8.36674045 282.794408,12.2778516 C284.886093,16.1889627 286,20.0683975 286,30.7666224 L286,170 L286,170 L0,170 L2.64234052e-15,30.7666224 C-1.53527594e-15,20.0683975 1.11390733,16.1889627 3.20559245,12.2778516 C5.29727756,8.36674045 8.36674045,5.29727756 12.2778516,3.20559245 C16.1889627,1.11390733 20.0683975,-3.31569841e-16 30.7666224,5.70659909e-16 Z" id="蒙版" fill="url(#linearGradient-1)"></path>
                    <path d="M24,6 L262,6 C271.941125,6 280,14.0588745 280,24 L280,170 L280,170 L6,170 L6,24 C6,14.0588745 14.0588745,6 24,6 Z" id="矩形" fill="#FFFFFF" opacity="0.5"></path>
                    <path d="M264.858646,16.6 C265.612553,16.6 265.890998,16.6657725 266.167972,16.8139002 C266.417197,16.9471868 266.612789,17.1427794 266.746076,17.3920037 C266.894203,17.6689783 266.959976,17.9474228 266.959976,18.7013299 L266.959976,18.7013299 L266.959976,21.9386701 C266.959976,22.6925772 266.894203,22.9710217 266.746076,23.2479963 C266.612789,23.4972206 266.417197,23.6928132 266.167972,23.8260998 C265.890998,23.9742275 265.612553,24.04 264.858646,24.04 L264.858646,24.04 L253.941306,24.04 C253.187399,24.04 252.908954,23.9742275 252.63198,23.8260998 C252.382755,23.6928132 252.187163,23.4972206 252.053876,23.2479963 C251.905749,22.9710217 251.839976,22.6925772 251.839976,21.9386701 L251.839976,21.9386701 L251.839976,18.7013299 C251.839976,17.9474228 251.905749,17.6689783 252.053876,17.3920037 C252.187163,17.1427794 252.382755,16.9471868 252.63198,16.8139002 C252.908954,16.6657725 253.187399,16.6 253.941306,16.6 L253.941306,16.6 Z" id="Border" stroke="#000000" stroke-width="0.72" opacity="0.35"></path>
                    <path d="M268.039976,18.88 L268.039976,21.76 C268.619382,21.5160809 268.996163,20.948656 268.996163,20.32 C268.996163,19.691344 268.619382,19.1239191 268.039976,18.88" id="Cap" fill="#ABABAB" fill-rule="nonzero" opacity="0.4"></path>
                    <path d="M254.150641,17.68 L264.649311,17.68 C265.07724,17.68 265.232417,17.7245563 265.388862,17.8082237 C265.545306,17.8918911 265.668085,18.0146696 265.751752,18.1711141 C265.83542,18.3275585 265.879976,18.4827359 265.879976,18.9106649 L265.879976,21.7293351 C265.879976,22.1572641 265.83542,22.3124415 265.751752,22.4688859 C265.668085,22.6253304 265.545306,22.7481089 265.388862,22.8317763 C265.232417,22.9154437 265.07724,22.96 264.649311,22.96 L254.150641,22.96 C253.722712,22.96 253.567535,22.9154437 253.41109,22.8317763 C253.254646,22.7481089 253.131867,22.6253304 253.0482,22.4688859 C252.964532,22.3124415 252.919976,22.1572641 252.919976,21.7293351 L252.919976,18.9106649 C252.919976,18.4827359 252.964532,18.3275585 253.0482,18.1711141 C253.131867,18.0146696 253.254646,17.8918911 253.41109,17.8082237 C253.567535,17.7245563 253.722712,17.68 254.150641,17.68 Z" id="Capacity" fill="#ABABAB" fill-rule="nonzero"></path>
                    <path d="M242.36029,17.8829081 C243.962097,17.8829782 245.502653,18.497938 246.663548,19.6006844 C246.750966,19.6858206 246.890695,19.6847467 246.976793,19.5982769 L247.812433,18.7556396 C247.856028,18.7117824 247.880334,18.6523752 247.879976,18.5905639 C247.87961,18.5287526 247.854611,18.4696336 247.810505,18.4262888 C244.763528,15.5086829 239.95657,15.5086829 236.909593,18.4262888 C236.865455,18.4696014 236.840412,18.5287025 236.84,18.5905139 C236.839598,18.6523253 236.863861,18.7117505 236.907424,18.7556396 L237.743305,19.5982769 C237.829348,19.6848772 237.969184,19.6859519 238.05655,19.6006844 C239.217593,18.4978656 240.758325,17.882904 242.36029,17.8829081 L242.36029,17.8829081 Z M242.36029,20.6243684 C243.240379,20.6243145 244.089061,20.9511609 244.741431,21.5413986 C244.829667,21.6251668 244.968662,21.6233507 245.054676,21.5373058 L245.889352,20.6946685 C245.933308,20.6504697 245.957697,20.5905103 245.957075,20.5282047 C245.956429,20.465899 245.930825,20.4064475 245.885979,20.3631509 C243.899382,18.5167767 240.822884,18.5167767 238.836288,20.3631509 C238.791414,20.406447 238.765811,20.4659283 238.765212,20.5282541 C238.764633,20.5905798 238.789107,20.6505336 238.833156,20.6946685 L239.667591,21.5373058 C239.753605,21.6233507 239.8926,21.6251668 239.980836,21.5413986 C240.632774,20.9515509 241.480783,20.6247325 242.36029,20.6243684 L242.36029,20.6243684 Z M243.964343,22.6353826 C244.008983,22.5916093 244.033566,22.5313712 244.032289,22.4688907 C244.031012,22.4064103 244.003988,22.3472253 243.957597,22.3053095 C243.035521,21.5260743 241.685059,21.5260743 240.762983,22.3053095 C240.71656,22.3471916 240.689491,22.4063579 240.688169,22.4688387 C240.686846,22.5313195 240.711386,22.5915766 240.755996,22.6353826 L242.200053,24.0912192 C242.242378,24.1340052 242.300081,24.1580843 242.36029,24.1580843 C242.420499,24.1580843 242.478202,24.1340052 242.520527,24.0912192 L243.964343,22.6353826 Z" id="Wifi" fill="#ABABAB" fill-rule="nonzero"></path>
                    <path d="M221.72,21.2800002 L222.44,21.2800002 C222.837645,21.2800002 223.16,21.6023552 223.16,22.0000002 L223.16,23.4400002 C223.16,23.8376453 222.837645,24.1600002 222.44,24.1600002 L221.72,24.1600002 C221.322355,24.1600002 221,23.8376453 221,23.4400002 L221,22.0000002 C221,21.6023552 221.322355,21.2800002 221.72,21.2800002 L221.72,21.2800002 Z M225.08,19.8400002 L225.8,19.8400002 C226.197645,19.8400002 226.52,20.1623552 226.52,20.5600002 L226.52,23.4400002 C226.52,23.8376453 226.197645,24.1600002 225.8,24.1600002 L225.08,24.1600002 C224.682355,24.1600002 224.36,23.8376453 224.36,23.4400002 L224.36,20.5600002 C224.36,20.1623552 224.682355,19.8400002 225.08,19.8400002 Z M228.44,18.1600002 L229.16,18.1600002 C229.557645,18.1600002 229.88,18.4823552 229.88,18.8800002 L229.88,23.4400002 C229.88,23.8376453 229.557645,24.1600002 229.16,24.1600002 L228.44,24.1600002 C228.042355,24.1600002 227.72,23.8376453 227.72,23.4400002 L227.72,18.8800002 C227.72,18.4823552 228.042355,18.1600002 228.44,18.1600002 Z M231.8,16.4800002 L232.52,16.4800002 C232.917645,16.4800002 233.24,16.8023552 233.24,17.2000002 L233.24,23.4400002 C233.24,23.8376453 232.917645,24.1600002 232.52,24.1600002 L231.8,24.1600002 C231.402355,24.1600002 231.08,23.8376453 231.08,23.4400002 L231.08,17.2000002 C231.08,16.8023552 231.402355,16.4800002 231.8,16.4800002 L231.8,16.4800002 Z" id="Cellular-Connection" fill="#ABABAB" fill-rule="nonzero"></path>
                    <rect id="矩形" fill="#FFFFFF" x="12" y="41" width="262" height="71" rx="4"></rect>
                    <rect id="矩形备份-4" fill-opacity="0.03" fill="#000000" x="24" y="82" width="130" height="18" rx="2"></rect>
                    <circle id="椭圆形" fill-opacity="0.05" fill="#000000" cx="258.2" cy="60.2" r="7.2"></circle>
                    <path d="M258.6,56.6 L258.6,59.799 L261.8,59.8 L261.8,60.6 L258.6,60.599 L258.6,63.8 L257.8,63.8 L257.8,60.599 L254.6,60.6 L254.6,59.8 L257.8,59.799 L257.8,56.6 L258.6,56.6 Z" id="Rectangle-47" fill-opacity="0.3" fill="#000000" transform="translate(258.200000, 60.200000) scale(1, -1) rotate(-45.000000) translate(-258.200000, -60.200000) "></path>
                    <path d="M29.34,67.104 C30.3,67.104 30.792,66.6 30.792,65.592 L30.792,56.34 L29.604,56.34 L29.604,65.292 C29.604,65.76 29.364,66 28.908,66 C28.404,66 27.876,65.964 27.3,65.916 L27.576,67.104 L29.34,67.104 Z M34.572,65.064 L35.604,64.356 C35.136,62.772 34.464,60.936 33.6,58.824 L32.556,59.472 C33.396,61.536 34.068,63.396 34.572,65.064 Z M25.332,65.004 C26.232,63.756 26.964,61.944 27.516,59.58 L26.376,59.124 C25.932,61.212 25.248,62.88 24.336,64.128 L25.332,65.004 Z M39.408,67.188 L39.408,62.028 C39.696,62.436 40.02,62.952 40.404,63.576 L41.04,62.616 C40.488,62.016 39.948,61.452 39.408,60.948 L39.408,60.444 L40.788,60.444 L40.788,59.352 L39.408,59.352 L39.408,57.72 C39.984,57.612 40.524,57.492 41.04,57.348 L40.644,56.268 C39.48,56.628 38.16,56.88 36.672,57 L36.9,58.068 C37.38,58.02 37.86,57.96 38.316,57.9 L38.316,59.352 L36.66,59.352 L36.66,60.444 L38.184,60.444 C37.8,61.656 37.2,62.736 36.36,63.696 L36.864,64.968 C37.452,64.128 37.932,63.192 38.316,62.184 L38.316,67.188 L39.408,67.188 Z M46.788,60.192 L46.788,56.556 L41.52,56.556 L41.52,60.192 L46.788,60.192 Z M45.684,59.172 L42.636,59.172 L42.636,57.564 L45.684,57.564 L45.684,59.172 Z M47.472,66.828 L47.472,65.748 L44.664,65.748 L44.664,64.416 L46.812,64.416 L46.812,63.396 L44.664,63.396 L44.664,62.148 L47.184,62.148 L47.184,61.116 L41.148,61.116 L41.148,62.148 L43.512,62.148 L43.512,63.396 L41.424,63.396 L41.424,64.416 L43.512,64.416 L43.512,65.748 L40.692,65.748 L40.692,66.828 L47.472,66.828 Z M49.296,67.236 C50.1,65.652 50.52,63.54 50.568,60.912 L50.568,58.116 L59.328,58.116 L59.328,57.06 L55.056,57.06 C54.912,56.7 54.756,56.376 54.612,56.088 L53.46,56.28 C53.616,56.52 53.76,56.784 53.892,57.06 L49.44,57.06 L49.44,60.912 C49.416,63.288 49.08,65.136 48.432,66.468 L49.296,67.236 Z M54.324,67.26 C55.116,67.26 55.512,66.852 55.512,66.048 L55.512,63.084 L57.912,63.084 C57.528,63.672 57.108,64.164 56.652,64.572 L57.504,65.256 C58.104,64.632 58.644,63.864 59.148,62.928 L59.148,62.04 L56.076,62.04 L56.232,61.884 L55.836,61.596 C56.676,61.068 57.444,60.42 58.164,59.676 L58.164,58.86 L51.648,58.86 L51.648,59.832 L56.736,59.832 C56.196,60.288 55.62,60.684 54.996,61.044 C54.528,60.756 54.012,60.48 53.46,60.192 L52.788,60.852 C53.604,61.26 54.312,61.656 54.888,62.04 L50.952,62.04 L50.952,63.084 L54.384,63.084 L54.384,65.784 C54.384,66.096 54.228,66.264 53.94,66.264 C53.412,66.264 52.872,66.228 52.296,66.18 L52.536,67.26 L54.324,67.26 Z M61.968,67.128 C62.748,67.128 63.144,66.732 63.144,65.964 L63.144,62.604 C63.444,62.46 63.744,62.304 64.056,62.148 L64.056,60.984 C63.756,61.152 63.456,61.308 63.144,61.452 L63.144,59.46 L64.26,59.46 L64.26,58.368 L63.144,58.368 L63.144,56.196 L61.992,56.196 L61.992,58.368 L60.636,58.368 L60.636,59.46 L61.992,59.46 L61.992,61.932 C61.488,62.112 60.984,62.268 60.468,62.388 L60.744,63.54 C61.164,63.396 61.584,63.252 61.992,63.096 L61.992,65.664 C61.992,65.94 61.848,66.084 61.572,66.084 C61.284,66.084 60.972,66.06 60.66,66.024 L60.912,67.128 L61.968,67.128 Z M70.476,60.864 L70.476,56.532 L65.076,56.532 L65.076,60.864 L70.476,60.864 Z M69.36,58.26 L66.18,58.26 L66.18,57.456 L69.36,57.456 L69.36,58.26 Z M69.36,59.94 L66.18,59.94 L66.18,59.124 L69.36,59.124 L69.36,59.94 Z M64.452,67.224 C64.896,66.66 65.256,66.048 65.532,65.388 C65.868,65.94 66.252,66.324 66.672,66.54 C67.26,66.828 68.352,66.972 69.948,66.984 C70.332,66.996 70.752,67.008 71.22,67.008 L71.532,65.904 C71.076,65.952 70.524,65.976 69.876,65.976 C69.276,65.976 68.76,65.94 68.316,65.892 L68.316,64.62 L70.68,64.62 L70.68,63.612 L68.316,63.612 L68.316,62.508 L71.196,62.508 L71.196,61.488 L64.296,61.488 L64.296,62.508 L67.224,62.508 L67.224,65.64 L67.116,65.604 C66.648,65.412 66.24,64.956 65.88,64.26 C65.964,63.864 66.024,63.456 66.048,63.024 L65.04,62.904 C64.944,64.224 64.464,65.412 63.6,66.492 L64.452,67.224 Z M83.04,60.768 L83.04,56.556 L78.012,56.556 L78.012,60.768 L83.04,60.768 Z M73.752,67.164 L73.752,66.576 L76.404,66.576 L76.404,67.152 L77.292,67.152 L77.292,63.432 L77.928,64.26 C78.264,63.852 78.54,63.396 78.78,62.892 L80.124,62.892 L80.124,63.9 L78.384,63.9 L78.384,64.884 L80.124,64.884 L80.124,65.94 L77.748,65.94 L77.748,67.008 L83.484,67.008 L83.484,65.94 L81.216,65.94 L81.216,64.884 L82.92,64.884 L82.92,63.9 L81.216,63.9 L81.216,62.892 L83.184,62.892 L83.184,61.896 L81.216,61.896 L81.216,61.056 L80.124,61.056 L80.124,61.896 L79.152,61.896 C79.224,61.656 79.284,61.392 79.344,61.116 L78.36,61.008 C78.168,61.944 77.808,62.748 77.292,63.408 L77.292,58.788 L76.2,58.788 L76.2,57.564 L77.508,57.564 L77.508,56.58 L72.528,56.58 L72.528,57.564 L73.944,57.564 L73.944,58.788 L72.852,58.788 L72.852,67.164 L73.752,67.164 Z M81.972,58.224 L79.068,58.224 L79.068,57.456 L81.972,57.456 L81.972,58.224 Z M75.336,58.788 L74.808,58.788 L74.808,57.564 L75.336,57.564 L75.336,58.788 Z M81.972,59.868 L79.068,59.868 L79.068,59.112 L81.972,59.112 L81.972,59.868 Z M76.404,63.66 L73.752,63.66 L73.752,62.904 L74.1,63.216 C74.604,62.628 74.856,61.692 74.868,60.42 L74.868,59.724 L75.312,59.724 L75.312,62.016 C75.312,62.46 75.504,62.688 75.912,62.688 L76.404,62.688 L76.404,63.66 Z M76.404,61.992 L76.092,61.992 C75.984,61.992 75.936,61.932 75.936,61.836 L75.936,59.724 L76.404,59.724 L76.404,61.992 Z M73.752,62.628 L73.752,59.724 L74.256,59.724 L74.256,60.42 C74.244,61.38 74.076,62.124 73.752,62.628 Z M76.404,65.616 L73.752,65.616 L73.752,64.56 L76.404,64.56 L76.404,65.616 Z" id="小程序提醒" fill-opacity="0.3" fill="#000000" fill-rule="nonzero"></path>
                </g>
            </g>
        </g>
    </g>
</svg>