<?xml version="1.0" encoding="UTF-8"?>
<svg width="32px" height="32px" viewBox="0 0 32 32" version="1.1" xmlns="http://www.w3.org/2000/svg" xmlns:xlink="http://www.w3.org/1999/xlink">
    <!-- Generator: Sketch 56.3 (81716) - https://sketch.com -->
    <title>成长守护</title>
    <desc>Created with Sketch.</desc>
    <g id="成长守护" stroke="none" stroke-width="1" fill="none" fill-rule="evenodd">
        <path d="M16.7061238,20.501773 L16.7061238,27.564245 C16.7323011,27.5624377 16.7598299,27.5604256 16.7891051,27.5581869 C16.9772262,27.5458285 17.0640654,27.539455 17.1857197,27.528119 L17.1624284,27.5300594 L17.193777,27.5265347 L17.2464541,27.5205926 C20.09739,27.2255445 22.6960059,25.8891272 24.5664397,23.8024788 C26.4988804,21.68245 27.5877525,18.9274839 27.5877525,16 C27.5877525,9.60061221 22.3996709,4.41224753 16,4.41224753 C9.60032905,4.41224753 4.41224753,9.60061221 4.41224753,16 C4.41224753,19.5889986 6.05565622,22.9055087 8.82039884,25.092023 L9.08850544,25.3040569 L9.08850544,27.5877525 L15.2938762,27.5879768 L15.2938762,20.5017931 L15.2575458,20.4993373 C12.0236814,20.2807479 9.94864538,18.7383345 8.88463829,16.3380219 C8.52887922,15.5354586 8.30945023,14.6843297 8.19852232,13.8234956 C8.12394693,13.244768 8.10668637,12.7372973 8.12208434,12.3392292 C8.1257635,12.2586525 8.1257635,12.2586525 8.12757193,12.2329312 L8.16946315,11.6558517 L8.74351678,11.5834776 C12.6748667,11.0878304 14.9490641,12.7818192 15.7684753,15.8158018 C15.8709755,16.195323 15.9469668,16.5799282 15.9999859,16.9644829 C16.0530364,16.5799168 16.1290582,16.195297 16.231588,15.8157595 C17.0511926,12.7818089 19.3252915,11.0878253 23.2562026,11.583479 L23.8301657,11.6558507 L23.8721296,12.2328345 C23.873946,12.2586191 23.873946,12.2586191 23.8776429,12.3394229 C23.8930773,12.7376373 23.8758498,13.2451651 23.8013105,13.8238863 C23.6904528,14.6845828 23.4711103,15.5355621 23.1154615,16.3379885 C22.0515897,18.7383309 19.9764348,20.2807507 16.7421562,20.4993378 L16.7061238,20.501773 Z M7.67625792,29 L7.67625792,25.9819236 C4.73856382,23.530797 3,19.9082252 3,16 C3,8.8206667 8.82034903,3 16,3 C23.179651,3 29,8.8206667 29,16 C29,19.2829466 27.7774268,22.3761913 25.6141052,24.7494769 C23.5145809,27.091739 20.5935054,28.593991 17.3918033,28.9253405 L17.3587857,28.9291092 C17.3345571,28.9319593 17.3345571,28.9319593 17.279661,28.9372387 L17.2998812,28.9355986 C17.1800634,28.9470518 17.0835422,28.9541359 16.8895502,28.9668357 C16.7851223,28.9748686 16.6917588,28.980768 16.6288447,28.9829901 L16.5991589,28.9852679 C16.5725755,28.986834 16.5725755,28.986834 16.5550483,28.9871205 L16.0631402,29 L7.67625792,29 Z M17.5949633,16.1840676 C17.3447672,17.110225 17.2793087,18.1017051 17.3309609,19.0189948 C19.6208024,18.6909016 21.0420407,17.5308067 21.8243458,15.7657444 C22.1203401,15.0979126 22.3061544,14.3770118 22.4006334,13.6434791 C22.4339946,13.3844638 22.4539004,13.1432341 22.4635019,12.9256797 C19.6659028,12.7482177 18.1954434,13.9612556 17.5949633,16.1840676 Z M14.4050771,16.1840253 C13.8047539,13.9612461 12.3342565,12.748215 9.53629166,12.9256791 C9.54591608,13.1430875 9.5658332,13.3841564 9.59918859,13.6430044 C9.69373079,14.3766805 9.87962599,15.0977373 10.1757244,15.7657111 C10.9581474,17.530793 12.3793231,18.6908933 14.6688254,19.0189915 C14.7205782,18.1016569 14.6552077,17.1101682 14.4050771,16.1840253 Z" id="形状结合" fill="#231815" fill-rule="nonzero"></path>
    </g>
</svg>