<?xml version="1.0" encoding="UTF-8"?>
<svg width="24px" height="24px" viewBox="0 0 24 24" version="1.1" xmlns="http://www.w3.org/2000/svg" xmlns:xlink="http://www.w3.org/1999/xlink">
    <title>画板</title>
    <g id="页面-1" stroke="none" stroke-width="1" fill="none" fill-rule="evenodd" fill-opacity="0.9">
        <g id="画板" transform="translate(-16.000000, -54.000000)" fill="#000000">
            <g id="Combined-Shape" transform="translate(16.000000, 54.000000)">
                <path d="M12.7071068,2.907107 L21.492893,11.492893 C21.6804294,11.6804294 21.785786,11.9347835 21.785786,12.2 C21.785786,12.7522847 21.3380707,13.2 20.785786,13.2 L18.2,13.2 L18.2,20.4 C18.2,20.9522847 17.7522847,21.4 17.2,21.4 L6.8,21.4 C6.24771525,21.4 5.8,20.9522847 5.8,20.4 L5.8,13.2 L3.21421378,13.2 C2.94899751,13.2 2.69464338,13.0946434 2.507107,12.907107 C2.11658271,12.5165827 2.11658271,11.8834173 2.507107,11.492893 L11.2928932,2.907107 C11.6834175,2.51658271 12.3165825,2.51658271 12.7071068,2.907107 Z M12,3.897056 L3.697056,12 L7,12 L7,20.2 L10.9992138,20.1992138 L11,17.4 L13,17.4 L12.9992138,20.1992138 L17,20.2 L17,12 L20.302944,12 L12,3.897056 Z"></path>
            </g>
        </g>
    </g>
</svg>